<svg width="1011" height="1011" viewBox="0 0 1011 1011" fill="none" xmlns="http://www.w3.org/2000/svg">
<g clip-path="url(#clip0_58_113)">
<rect width="1011" height="1011" fill="white"/>
<g filter="url(#filter0_f_58_113)">
<ellipse cx="525.5" cy="707" rx="636.5" ry="584" fill="url(#paint0_linear_58_113)" fill-opacity="0.2"/>
</g>
<circle cx="505.5" cy="503.5" r="380" stroke="#C9C9C9"/>
<circle cx="506" cy="506" r="489.356" stroke="#C9C9C9" stroke-width="1.28778"/>
<circle cx="508" cy="501" r="277.635" stroke="#C9C9C9" stroke-width="0.730618"/>
<g filter="url(#filter1_d_58_113)">
<rect x="370" y="369" width="271" height="271" rx="135.5" fill="white" shape-rendering="crispEdges"/>
<g filter="url(#filter2_d_58_113)">
<rect x="370" y="369" width="271" height="271" rx="135.5" fill="url(#paint1_radial_58_113)" shape-rendering="crispEdges"/>
<rect x="370.654" y="369.654" width="269.692" height="269.692" rx="134.846" stroke="#F1F1F4" stroke-width="1.30762" shape-rendering="crispEdges"/>
<path d="M436.229 506.177H503.187V539.656C503.187 558.145 488.198 573.134 469.708 573.134C451.218 573.134 436.229 558.145 436.229 539.656V506.177Z" fill="#EA284E"/>
<path d="M507.829 435.885H541.308C559.797 435.885 574.786 451.204 574.786 469.694C574.786 487.822 560.09 502.842 541.962 502.842H507.829V435.885Z" fill="#EA284E"/>
<path d="M501.029 435.885C492.519 435.885 484.093 437.561 476.231 440.818C468.369 444.074 461.226 448.847 455.209 454.864C449.192 460.882 444.419 468.025 441.162 475.887C437.906 483.749 436.229 492.175 436.229 500.685L501.029 500.684V435.885Z" fill="#EA284E"/>
</g>
</g>
<g filter="url(#filter3_d_58_113)">
<path d="M624 823.992C624 811.294 634.294 801 646.992 801H683.808C696.506 801 706.8 811.294 706.8 823.992V860.808C706.8 873.506 696.506 883.8 683.808 883.8H646.992C634.294 883.8 624 873.506 624 860.808V823.992Z" fill="white"/>
<path d="M646.992 801.575H683.808C696.188 801.575 706.226 811.611 706.226 823.992V860.808C706.226 873.188 696.188 883.226 683.808 883.226H646.992C634.611 883.226 624.575 873.188 624.575 860.808V823.992C624.575 811.611 634.611 801.575 646.992 801.575Z" stroke="#99A1B7" stroke-width="1.14961"/>
</g>
<g filter="url(#filter4_d_58_113)">
<rect x="180" y="127.839" width="152.4" height="82.8" rx="22.9921" fill="white"/>
<rect x="180.575" y="128.413" width="151.25" height="81.6504" rx="22.4173" stroke="#99A1B7" stroke-width="1.14961"/>
</g>
<path d="M219.202 182.664C216.824 182.664 214.783 182.175 213.08 181.196C211.387 180.218 210.085 178.857 209.175 177.115C208.265 175.363 207.81 173.337 207.81 171.037C207.81 168.727 208.265 166.701 209.175 164.959C210.095 163.207 211.402 161.842 213.095 160.863C214.798 159.884 216.829 159.395 219.188 159.395C221.272 159.395 223.088 159.772 224.634 160.525C226.19 161.279 227.404 162.346 228.275 163.726C229.156 165.096 229.621 166.706 229.67 168.556H222.961C222.824 167.401 222.432 166.496 221.786 165.84C221.15 165.184 220.318 164.856 219.29 164.856C218.458 164.856 217.729 165.091 217.103 165.561C216.476 166.021 215.987 166.706 215.635 167.616C215.292 168.517 215.121 169.633 215.121 170.964C215.121 172.295 215.292 173.42 215.635 174.34C215.987 175.25 216.476 175.94 217.103 176.41C217.729 176.87 218.458 177.1 219.29 177.1C219.956 177.1 220.543 176.958 221.052 176.674C221.571 176.391 221.996 175.975 222.329 175.427C222.662 174.869 222.872 174.193 222.961 173.401H229.67C229.601 175.26 229.136 176.885 228.275 178.275C227.424 179.665 226.225 180.746 224.678 181.519C223.142 182.283 221.316 182.664 219.202 182.664ZM240.523 169.378V182.239H233.344V152.172H240.288V163.829H240.537C241.046 162.439 241.878 161.352 243.033 160.569C244.198 159.786 245.622 159.395 247.305 159.395C248.891 159.395 250.271 159.747 251.445 160.452C252.62 161.147 253.53 162.131 254.176 163.403C254.832 164.675 255.155 166.163 255.145 167.866V182.239H247.966V169.275C247.976 168.023 247.662 167.044 247.026 166.339C246.39 165.634 245.495 165.282 244.34 165.282C243.586 165.282 242.921 165.448 242.343 165.781C241.775 166.104 241.33 166.569 241.007 167.176C240.694 167.783 240.532 168.517 240.523 169.378ZM265.983 182.62C264.544 182.62 263.267 182.381 262.151 181.901C261.045 181.412 260.169 180.678 259.523 179.699C258.887 178.71 258.569 177.472 258.569 175.984C258.569 174.732 258.789 173.675 259.23 172.813C259.67 171.952 260.277 171.252 261.05 170.714C261.823 170.176 262.714 169.77 263.722 169.496C264.73 169.212 265.807 169.021 266.952 168.923C268.234 168.805 269.267 168.683 270.05 168.556C270.833 168.419 271.4 168.228 271.753 167.983C272.115 167.729 272.296 167.372 272.296 166.912V166.838C272.296 166.085 272.037 165.502 271.518 165.091C270.999 164.68 270.299 164.475 269.418 164.475C268.469 164.475 267.706 164.68 267.128 165.091C266.551 165.502 266.184 166.07 266.027 166.794L259.406 166.559C259.602 165.189 260.106 163.966 260.918 162.889C261.74 161.803 262.866 160.951 264.295 160.335C265.734 159.708 267.461 159.395 269.477 159.395C270.916 159.395 272.242 159.566 273.456 159.909C274.669 160.242 275.726 160.731 276.627 161.377C277.527 162.013 278.222 162.796 278.712 163.726C279.211 164.656 279.46 165.718 279.46 166.912V182.239H272.707V179.097H272.531C272.13 179.86 271.616 180.506 270.989 181.035C270.373 181.563 269.644 181.96 268.802 182.224C267.97 182.488 267.03 182.62 265.983 182.62ZM268.2 177.922C268.973 177.922 269.668 177.766 270.285 177.453C270.911 177.139 271.41 176.709 271.782 176.161C272.154 175.603 272.34 174.957 272.34 174.223V172.079C272.134 172.187 271.885 172.285 271.591 172.373C271.307 172.461 270.994 172.544 270.652 172.623C270.309 172.701 269.957 172.769 269.595 172.828C269.232 172.887 268.885 172.941 268.552 172.99C267.877 173.097 267.3 173.264 266.82 173.489C266.35 173.714 265.988 174.007 265.734 174.37C265.489 174.722 265.367 175.143 265.367 175.632C265.367 176.376 265.631 176.944 266.159 177.335C266.698 177.727 267.378 177.922 268.2 177.922ZM296.578 159.689V164.974H282.352V159.689H296.578ZM285.333 154.286H292.512V175.148C292.512 175.588 292.58 175.945 292.717 176.219C292.864 176.484 293.074 176.674 293.348 176.792C293.622 176.9 293.95 176.953 294.332 176.953C294.606 176.953 294.895 176.929 295.198 176.88C295.511 176.821 295.746 176.772 295.903 176.733L296.989 181.916C296.647 182.013 296.162 182.136 295.536 182.283C294.919 182.429 294.18 182.522 293.319 182.562C291.636 182.64 290.192 182.444 288.988 181.974C287.794 181.495 286.879 180.751 286.243 179.743C285.616 178.735 285.313 177.467 285.333 175.94V154.286Z" fill="#EA284E"/>
<g filter="url(#filter5_d_58_113)">
<rect x="106" y="726.1" width="234" height="82.8" rx="24" fill="white"/>
<rect x="106.6" y="726.7" width="232.8" height="81.6" rx="23.4" stroke="#99A1B7" stroke-width="1.2"/>
</g>
<path d="M145.763 784.144C143.28 784.144 141.15 783.634 139.373 782.612C137.605 781.59 136.246 780.17 135.296 778.352C134.346 776.523 133.871 774.408 133.871 772.007C133.871 769.596 134.346 767.482 135.296 765.663C136.257 763.834 137.62 762.409 139.388 761.388C141.166 760.366 143.285 759.855 145.748 759.855C147.924 759.855 149.819 760.248 151.433 761.035C153.057 761.822 154.324 762.935 155.233 764.376C156.153 765.806 156.638 767.487 156.689 769.418H149.686C149.543 768.212 149.134 767.267 148.46 766.583C147.796 765.898 146.928 765.556 145.855 765.556C144.986 765.556 144.225 765.801 143.571 766.291C142.918 766.772 142.407 767.487 142.039 768.437C141.681 769.377 141.503 770.541 141.503 771.931C141.503 773.32 141.681 774.495 142.039 775.455C142.407 776.406 142.918 777.126 143.571 777.616C144.225 778.096 144.986 778.336 145.855 778.336C146.55 778.336 147.163 778.188 147.694 777.892C148.235 777.596 148.68 777.162 149.027 776.589C149.374 776.007 149.594 775.302 149.686 774.475H156.689C156.618 776.416 156.132 778.112 155.233 779.562C154.345 781.013 153.093 782.142 151.479 782.949C149.875 783.746 147.97 784.144 145.763 784.144ZM171.512 784.144C169.04 784.144 166.915 783.639 165.137 782.627C163.369 781.606 162.006 780.186 161.045 778.367C160.095 776.538 159.62 774.418 159.62 772.007C159.62 769.586 160.095 767.466 161.045 765.648C162.006 763.819 163.369 762.399 165.137 761.388C166.915 760.366 169.04 759.855 171.512 759.855C173.984 759.855 176.104 760.366 177.872 761.388C179.649 762.399 181.013 763.819 181.963 765.648C182.924 767.466 183.404 769.586 183.404 772.007C183.404 774.418 182.924 776.538 181.963 778.367C181.013 780.186 179.649 781.606 177.872 782.627C176.104 783.639 173.984 784.144 171.512 784.144ZM171.558 778.49C172.457 778.49 173.218 778.214 173.841 777.662C174.464 777.11 174.939 776.344 175.266 775.363C175.604 774.383 175.772 773.249 175.772 771.961C175.772 770.654 175.604 769.51 175.266 768.529C174.939 767.548 174.464 766.782 173.841 766.23C173.218 765.678 172.457 765.403 171.558 765.403C170.628 765.403 169.842 765.678 169.198 766.23C168.564 766.782 168.079 767.548 167.742 768.529C167.415 769.51 167.252 770.654 167.252 771.961C167.252 773.249 167.415 774.383 167.742 775.363C168.079 776.344 168.564 777.11 169.198 777.662C169.842 778.214 170.628 778.49 171.558 778.49ZM194.736 770.276V783.7H187.243V760.162H194.368V764.483H194.629C195.15 763.043 196.039 761.914 197.295 761.096C198.552 760.269 200.049 759.855 201.786 759.855C203.441 759.855 204.876 760.228 206.092 760.974C207.318 761.709 208.268 762.741 208.942 764.069C209.627 765.387 209.964 766.93 209.953 768.697V783.7H202.46V770.168C202.47 768.861 202.138 767.839 201.464 767.104C200.8 766.368 199.875 766 198.69 766C197.903 766 197.209 766.174 196.606 766.521C196.013 766.858 195.554 767.344 195.227 767.977C194.91 768.61 194.746 769.377 194.736 770.276ZM222.087 770.276V783.7H214.593V760.162H221.719V764.483H221.979C222.5 763.043 223.389 761.914 224.646 761.096C225.902 760.269 227.399 759.855 229.136 759.855C230.791 759.855 232.226 760.228 233.442 760.974C234.668 761.709 235.618 762.741 236.292 764.069C236.977 765.387 237.314 766.93 237.304 768.697V783.7H229.81V770.168C229.82 768.861 229.488 767.839 228.814 767.104C228.15 766.368 227.225 766 226.04 766C225.254 766 224.559 766.174 223.956 766.521C223.364 766.858 222.904 767.344 222.577 767.977C222.26 768.61 222.097 769.377 222.087 770.276ZM252.946 784.144C250.484 784.144 248.359 783.659 246.571 782.689C244.794 781.708 243.425 780.313 242.464 778.505C241.514 776.686 241.039 774.526 241.039 772.023C241.039 769.591 241.519 767.466 242.48 765.648C243.44 763.819 244.794 762.399 246.541 761.388C248.288 760.366 250.346 759.855 252.717 759.855C254.392 759.855 255.924 760.116 257.314 760.637C258.703 761.158 259.904 761.929 260.915 762.951C261.927 763.972 262.713 765.234 263.275 766.736C263.837 768.227 264.118 769.939 264.118 771.869V773.739H243.66V769.387H257.145C257.135 768.59 256.946 767.88 256.578 767.257C256.211 766.634 255.705 766.148 255.061 765.801C254.428 765.443 253.697 765.265 252.87 765.265C252.032 765.265 251.281 765.454 250.617 765.832C249.953 766.199 249.427 766.705 249.039 767.349C248.65 767.982 248.446 768.702 248.426 769.51V773.938C248.426 774.899 248.615 775.741 248.993 776.467C249.371 777.182 249.907 777.739 250.602 778.137C251.296 778.536 252.124 778.735 253.084 778.735C253.748 778.735 254.351 778.643 254.893 778.459C255.434 778.275 255.899 778.004 256.287 777.647C256.675 777.289 256.967 776.85 257.161 776.329L264.041 776.528C263.755 778.071 263.127 779.414 262.156 780.558C261.196 781.692 259.934 782.576 258.371 783.21C256.808 783.833 255 784.144 252.946 784.144ZM278.933 784.144C276.45 784.144 274.32 783.634 272.543 782.612C270.775 781.59 269.416 780.17 268.466 778.352C267.516 776.523 267.041 774.408 267.041 772.007C267.041 769.596 267.516 767.482 268.466 765.663C269.427 763.834 270.791 762.409 272.558 761.388C274.336 760.366 276.456 759.855 278.918 759.855C281.094 759.855 282.989 760.248 284.603 761.035C286.227 761.822 287.494 762.935 288.404 764.376C289.323 765.806 289.808 767.487 289.859 769.418H282.856C282.713 768.212 282.304 767.267 281.63 766.583C280.966 765.898 280.098 765.556 279.025 765.556C278.157 765.556 277.395 765.801 276.742 766.291C276.088 766.772 275.577 767.487 275.209 768.437C274.852 769.377 274.673 770.541 274.673 771.931C274.673 773.32 274.852 774.495 275.209 775.455C275.577 776.406 276.088 777.126 276.742 777.616C277.395 778.096 278.157 778.336 279.025 778.336C279.72 778.336 280.333 778.188 280.864 777.892C281.405 777.596 281.85 777.162 282.197 776.589C282.544 776.007 282.764 775.302 282.856 774.475H289.859C289.788 776.416 289.303 778.112 288.404 779.562C287.515 781.013 286.263 782.142 284.649 782.949C283.045 783.746 281.14 784.144 278.933 784.144ZM306.981 760.162V765.678H292.131V760.162H306.981ZM295.242 754.522H302.736V776.298C302.736 776.758 302.807 777.131 302.95 777.417C303.104 777.693 303.323 777.892 303.609 778.015C303.895 778.127 304.238 778.183 304.636 778.183C304.922 778.183 305.223 778.158 305.54 778.107C305.867 778.045 306.112 777.994 306.276 777.953L307.41 783.363C307.052 783.465 306.546 783.593 305.893 783.746C305.249 783.899 304.478 783.996 303.579 784.037C301.821 784.119 300.315 783.915 299.058 783.424C297.812 782.924 296.856 782.147 296.192 781.095C295.538 780.043 295.222 778.72 295.242 777.126V754.522Z" fill="#EA284E"/>
<g filter="url(#filter6_d_58_113)">
<rect x="677.214" y="241.2" width="253.786" height="82.6" rx="23.942" fill="white"/>
<rect x="677.813" y="241.799" width="252.588" height="81.4029" rx="23.3435" stroke="#99A1B7" stroke-width="1.1971"/>
</g>
<path d="M712.54 299.16C711.042 299.16 709.712 298.91 708.55 298.411C707.398 297.901 706.486 297.137 705.813 296.118C705.151 295.088 704.82 293.799 704.82 292.25C704.82 290.945 705.049 289.845 705.508 288.948C705.966 288.051 706.598 287.322 707.403 286.762C708.208 286.201 709.136 285.778 710.186 285.493C711.235 285.197 712.356 284.998 713.549 284.897C714.884 284.774 715.959 284.647 716.774 284.514C717.59 284.372 718.181 284.173 718.548 283.918C718.925 283.653 719.113 283.281 719.113 282.802V282.726C719.113 281.941 718.843 281.335 718.303 280.907C717.763 280.478 717.034 280.264 716.117 280.264C715.129 280.264 714.334 280.478 713.732 280.907C713.131 281.335 712.749 281.926 712.586 282.68L705.691 282.435C705.895 281.008 706.42 279.734 707.266 278.613C708.122 277.482 709.294 276.595 710.782 275.953C712.28 275.301 714.079 274.975 716.178 274.975C717.676 274.975 719.057 275.153 720.321 275.51C721.585 275.857 722.686 276.366 723.623 277.039C724.561 277.701 725.285 278.517 725.794 279.485C726.314 280.453 726.574 281.559 726.574 282.802V298.762H719.542V295.491H719.358C718.94 296.286 718.405 296.958 717.753 297.509C717.111 298.059 716.352 298.472 715.475 298.747C714.609 299.022 713.63 299.16 712.54 299.16ZM714.848 294.268C715.653 294.268 716.377 294.105 717.019 293.779C717.671 293.452 718.191 293.004 718.578 292.433C718.966 291.852 719.159 291.18 719.159 290.415V288.183C718.945 288.295 718.685 288.397 718.38 288.489C718.084 288.581 717.758 288.667 717.401 288.749C717.045 288.831 716.678 288.902 716.301 288.963C715.923 289.024 715.562 289.08 715.215 289.131C714.512 289.243 713.911 289.417 713.411 289.651C712.922 289.885 712.545 290.191 712.28 290.568C712.025 290.935 711.898 291.373 711.898 291.883C711.898 292.658 712.173 293.249 712.723 293.656C713.284 294.064 713.992 294.268 714.848 294.268ZM746.295 288.627V275.281H753.755V298.762H746.631V294.39H746.386C745.867 295.827 744.98 296.969 743.726 297.815C742.483 298.65 740.98 299.068 739.217 299.068C737.616 299.068 736.21 298.701 734.997 297.967C733.784 297.234 732.842 296.209 732.169 294.895C731.496 293.57 731.155 292.021 731.145 290.247V275.281H738.62V288.78C738.631 290.054 738.967 291.057 739.629 291.791C740.292 292.525 741.194 292.892 742.335 292.892C743.079 292.892 743.747 292.729 744.338 292.403C744.939 292.066 745.413 291.582 745.76 290.95C746.116 290.308 746.295 289.534 746.295 288.627ZM771.767 275.281V280.784H756.954V275.281H771.767ZM760.057 269.655H767.533V291.378C767.533 291.837 767.604 292.209 767.747 292.494C767.9 292.77 768.119 292.968 768.404 293.091C768.69 293.203 769.031 293.259 769.428 293.259C769.714 293.259 770.014 293.233 770.33 293.182C770.657 293.121 770.901 293.07 771.064 293.03L772.196 298.426C771.839 298.528 771.334 298.655 770.682 298.808C770.04 298.961 769.27 299.058 768.374 299.099C766.621 299.18 765.117 298.976 763.864 298.487C762.62 297.988 761.668 297.213 761.005 296.163C760.353 295.114 760.037 293.794 760.057 292.204V269.655ZM786.291 299.206C783.824 299.206 781.704 298.701 779.931 297.692C778.168 296.673 776.807 295.256 775.849 293.442C774.901 291.618 774.427 289.503 774.427 287.098C774.427 284.683 774.901 282.568 775.849 280.754C776.807 278.929 778.168 277.513 779.931 276.504C781.704 275.485 783.824 274.975 786.291 274.975C788.757 274.975 790.872 275.485 792.635 276.504C794.408 277.513 795.769 278.929 796.717 280.754C797.675 282.568 798.154 284.683 798.154 287.098C798.154 289.503 797.675 291.618 796.717 293.442C795.769 295.256 794.408 296.673 792.635 297.692C790.872 298.701 788.757 299.206 786.291 299.206ZM786.336 293.565C787.233 293.565 787.993 293.289 788.614 292.739C789.236 292.189 789.71 291.424 790.036 290.446C790.372 289.468 790.541 288.336 790.541 287.052C790.541 285.748 790.372 284.606 790.036 283.628C789.71 282.649 789.236 281.885 788.614 281.335C787.993 280.784 787.233 280.509 786.336 280.509C785.409 280.509 784.624 280.784 783.982 281.335C783.35 281.885 782.866 282.649 782.53 283.628C782.204 284.606 782.041 285.748 782.041 287.052C782.041 288.336 782.204 289.468 782.53 290.446C782.866 291.424 783.35 292.189 783.982 292.739C784.624 293.289 785.409 293.565 786.336 293.565ZM801.983 298.762V275.281H809.092V279.592H809.352C809.841 278.165 810.667 277.039 811.828 276.213C812.99 275.388 814.376 274.975 815.987 274.975C817.617 274.975 819.013 275.393 820.175 276.229C821.337 277.064 822.076 278.185 822.392 279.592H822.637C823.075 278.196 823.931 277.08 825.205 276.244C826.479 275.398 827.982 274.975 829.715 274.975C831.937 274.975 833.74 275.688 835.127 277.115C836.513 278.532 837.206 280.478 837.206 282.955V298.762H829.73V284.667C829.73 283.495 829.429 282.603 828.828 281.992C828.227 281.37 827.447 281.059 826.489 281.059C825.46 281.059 824.649 281.396 824.058 282.068C823.477 282.731 823.187 283.623 823.187 284.744V298.762H816.002V284.591C816.002 283.5 815.706 282.639 815.115 282.007C814.524 281.375 813.744 281.059 812.776 281.059C812.124 281.059 811.548 281.217 811.049 281.533C810.549 281.839 810.157 282.277 809.872 282.848C809.596 283.419 809.459 284.091 809.459 284.866V298.762H801.983ZM848.457 299.16C846.959 299.16 845.629 298.91 844.467 298.411C843.316 297.901 842.403 297.137 841.731 296.118C841.068 295.088 840.737 293.799 840.737 292.25C840.737 290.945 840.966 289.845 841.425 288.948C841.884 288.051 842.515 287.322 843.321 286.762C844.126 286.201 845.053 285.778 846.103 285.493C847.153 285.197 848.274 284.998 849.466 284.897C850.801 284.774 851.877 284.647 852.692 284.514C853.507 284.372 854.098 284.173 854.465 283.918C854.842 283.653 855.031 283.281 855.031 282.802V282.726C855.031 281.941 854.761 281.335 854.221 280.907C853.68 280.478 852.952 280.264 852.034 280.264C851.046 280.264 850.251 280.478 849.65 280.907C849.048 281.335 848.666 281.926 848.503 282.68L841.608 282.435C841.812 281.008 842.337 279.734 843.183 278.613C844.039 277.482 845.211 276.595 846.699 275.953C848.197 275.301 849.996 274.975 852.096 274.975C853.594 274.975 854.975 275.153 856.239 275.51C857.502 275.857 858.603 276.366 859.541 277.039C860.478 277.701 861.202 278.517 861.711 279.485C862.231 280.453 862.491 281.559 862.491 282.802V298.762H855.459V295.491H855.275C854.858 296.286 854.323 296.958 853.67 297.509C853.028 298.059 852.269 298.472 851.392 298.747C850.526 299.022 849.548 299.16 848.457 299.16ZM850.766 294.268C851.571 294.268 852.294 294.105 852.936 293.779C853.589 293.452 854.109 293.004 854.496 292.433C854.883 291.852 855.077 291.18 855.077 290.415V288.183C854.863 288.295 854.603 288.397 854.297 288.489C854.001 288.581 853.675 288.667 853.319 288.749C852.962 288.831 852.595 288.902 852.218 288.963C851.841 289.024 851.479 289.08 851.133 289.131C850.429 289.243 849.828 289.417 849.329 289.651C848.839 289.885 848.462 290.191 848.197 290.568C847.943 290.935 847.815 291.373 847.815 291.883C847.815 292.658 848.09 293.249 848.641 293.656C849.201 294.064 849.91 294.268 850.766 294.268ZM880.316 275.281V280.784H865.503V275.281H880.316ZM868.606 269.655H876.082V291.378C876.082 291.837 876.153 292.209 876.296 292.494C876.449 292.77 876.668 292.968 876.953 293.091C877.238 293.203 877.58 293.259 877.977 293.259C878.263 293.259 878.563 293.233 878.879 293.182C879.205 293.121 879.45 293.07 879.613 293.03L880.744 298.426C880.388 298.528 879.883 298.655 879.231 298.808C878.589 298.961 877.819 299.058 876.923 299.099C875.17 299.18 873.666 298.976 872.413 298.487C871.169 297.988 870.216 297.213 869.554 296.163C868.902 295.114 868.586 293.794 868.606 292.204V269.655ZM894.855 299.206C892.399 299.206 890.279 298.722 888.495 297.753C886.722 296.775 885.356 295.384 884.398 293.58C883.45 291.766 882.976 289.61 882.976 287.113C882.976 284.688 883.455 282.568 884.413 280.754C885.371 278.929 886.722 277.513 888.465 276.504C890.207 275.485 892.261 274.975 894.625 274.975C896.297 274.975 897.826 275.235 899.212 275.755C900.598 276.274 901.795 277.044 902.804 278.063C903.813 279.082 904.598 280.341 905.159 281.839C905.719 283.327 905.999 285.034 905.999 286.96V288.825H885.591V284.484H899.044C899.033 283.689 898.845 282.981 898.478 282.359C898.111 281.737 897.607 281.253 896.964 280.907C896.333 280.55 895.604 280.371 894.778 280.371C893.943 280.371 893.194 280.56 892.531 280.937C891.869 281.304 891.344 281.808 890.956 282.451C890.569 283.082 890.365 283.801 890.345 284.606V289.024C890.345 289.982 890.534 290.823 890.911 291.547C891.288 292.26 891.823 292.815 892.516 293.213C893.209 293.61 894.034 293.809 894.992 293.809C895.655 293.809 896.256 293.717 896.796 293.534C897.336 293.351 897.8 293.08 898.187 292.724C898.575 292.367 898.865 291.929 899.059 291.409L905.923 291.608C905.638 293.147 905.011 294.487 904.043 295.628C903.085 296.76 901.826 297.641 900.267 298.273C898.707 298.895 896.903 299.206 894.855 299.206Z" fill="#EA284E"/>
<g filter="url(#filter7_d_58_113)">
<rect x="741" y="617.1" width="162" height="82.8" rx="24" fill="white"/>
<rect x="741.6" y="617.7" width="160.8" height="81.6" rx="23.4" stroke="#99A1B7" stroke-width="1.2"/>
</g>
<path d="M769.775 674.7V643.315H777.269V655.192H777.422C777.729 654.477 778.163 653.787 778.725 653.123C779.297 652.459 780.022 651.918 780.901 651.499C781.79 651.07 782.852 650.855 784.088 650.855C785.723 650.855 787.25 651.284 788.67 652.142C790.101 653 791.255 654.323 792.134 656.111C793.012 657.899 793.452 660.177 793.452 662.946C793.452 665.613 793.028 667.845 792.18 669.643C791.342 671.441 790.208 672.79 788.778 673.689C787.358 674.588 785.779 675.037 784.042 675.037C782.857 675.037 781.83 674.843 780.962 674.455C780.094 674.067 779.363 673.556 778.771 672.922C778.188 672.289 777.739 671.61 777.422 670.884H777.192V674.7H769.775ZM777.116 662.931C777.116 664.198 777.284 665.301 777.621 666.241C777.969 667.181 778.464 667.911 779.108 668.432C779.762 668.943 780.543 669.198 781.452 669.198C782.372 669.198 783.154 668.943 783.797 668.432C784.441 667.911 784.926 667.181 785.253 666.241C785.59 665.301 785.759 664.198 785.759 662.931C785.759 661.664 785.59 660.566 785.253 659.636C784.926 658.706 784.441 657.986 783.797 657.475C783.164 656.964 782.382 656.709 781.452 656.709C780.533 656.709 779.751 656.959 779.108 657.46C778.464 657.961 777.969 658.676 777.621 659.605C777.284 660.535 777.116 661.644 777.116 662.931ZM812.565 664.54V651.162H820.043V674.7H812.902V670.317H812.657C812.136 671.758 811.247 672.902 809.991 673.75C808.744 674.588 807.237 675.006 805.47 675.006C803.866 675.006 802.456 674.639 801.24 673.903C800.025 673.168 799.08 672.141 798.405 670.823C797.731 669.495 797.389 667.942 797.378 666.164V651.162H804.872V664.693C804.882 665.97 805.22 666.976 805.884 667.712C806.548 668.448 807.452 668.815 808.596 668.815C809.342 668.815 810.011 668.652 810.604 668.325C811.206 667.988 811.681 667.503 812.029 666.869C812.386 666.226 812.565 665.449 812.565 664.54ZM824.813 674.7V651.162H832.307V674.7H824.813ZM828.568 648.418C827.515 648.418 826.611 648.071 825.855 647.376C825.099 646.671 824.721 645.823 824.721 644.833C824.721 643.852 825.099 643.014 825.855 642.319C826.611 641.614 827.515 641.262 828.568 641.262C829.63 641.262 830.534 641.614 831.28 642.319C832.036 643.014 832.414 643.852 832.414 644.833C832.414 645.823 832.036 646.671 831.28 647.376C830.534 648.071 829.63 648.418 828.568 648.418ZM844.57 643.315V674.7H837.077V643.315H844.57ZM857.937 675.037C856.2 675.037 854.622 674.588 853.202 673.689C851.782 672.79 850.648 671.441 849.8 669.643C848.952 667.845 848.528 665.613 848.528 662.946C848.528 660.177 848.967 657.899 849.846 656.111C850.724 654.323 851.874 653 853.294 652.142C854.724 651.284 856.262 650.855 857.907 650.855C859.143 650.855 860.2 651.07 861.079 651.499C861.957 651.918 862.683 652.459 863.255 653.123C863.827 653.787 864.261 654.477 864.557 655.192H864.711V643.315H872.204V674.7H864.787V670.884H864.557C864.241 671.61 863.791 672.289 863.209 672.922C862.626 673.556 861.896 674.067 861.017 674.455C860.149 674.843 859.122 675.037 857.937 675.037ZM860.542 669.198C861.452 669.198 862.228 668.943 862.872 668.432C863.515 667.911 864.011 667.181 864.358 666.241C864.706 665.301 864.879 664.198 864.879 662.931C864.879 661.644 864.706 660.535 864.358 659.605C864.021 658.676 863.526 657.961 862.872 657.46C862.228 656.959 861.452 656.709 860.542 656.709C859.613 656.709 858.826 656.964 858.182 657.475C857.539 657.986 857.048 658.706 856.711 659.636C856.384 660.566 856.221 661.664 856.221 662.931C856.221 664.198 856.389 665.301 856.727 666.241C857.064 667.181 857.549 667.911 858.182 668.432C858.826 668.943 859.613 669.198 860.542 669.198Z" fill="#EA284E"/>
<g filter="url(#filter8_d_58_113)">
<path d="M123 375.992C123 363.294 133.294 353 145.992 353H182.808C195.506 353 205.8 363.294 205.8 375.992V412.808C205.8 425.506 195.506 435.8 182.808 435.8H145.992C133.294 435.8 123 425.506 123 412.808V375.992Z" fill="white"/>
<path d="M145.992 353.575H182.808C195.188 353.575 205.226 363.611 205.226 375.992V412.808C205.226 425.188 195.188 435.226 182.808 435.226H145.992C133.611 435.226 123.575 425.188 123.575 412.808V375.992C123.575 363.611 133.611 353.575 145.992 353.575Z" stroke="#99A1B7" stroke-width="1.14961"/>
</g>
<path d="M164.099 414.697C160.658 414.7 157.271 413.832 154.256 412.174L148.522 413.742C148.092 413.865 147.642 413.899 147.198 413.843C146.755 413.788 146.327 413.642 145.941 413.417C145.299 413.039 144.801 412.458 144.524 411.767C144.247 411.075 144.208 410.311 144.412 409.594L145.961 403.86C144.121 400.526 143.24 396.747 143.418 392.944C143.595 389.14 144.824 385.46 146.966 382.312C149.108 379.163 152.081 376.671 155.555 375.11C159.028 373.549 162.866 372.982 166.643 373.47C170.419 373.959 173.987 375.484 176.949 377.877C179.911 380.27 182.151 383.438 183.422 387.027C184.693 390.617 184.945 394.488 184.148 398.212C183.352 401.936 181.54 405.366 178.912 408.122C177.016 410.163 174.726 411.799 172.18 412.929C169.634 414.059 166.885 414.661 164.099 414.697ZM154.638 409.097L155.154 409.403C157.924 410.979 161.066 411.784 164.253 411.732C167.44 411.681 170.555 410.775 173.273 409.11C175.99 407.444 178.211 405.08 179.704 402.264C181.197 399.448 181.907 396.283 181.76 393.099C181.606 390.626 180.937 388.212 179.795 386.014C178.652 383.815 177.063 381.879 175.127 380.331C171.902 377.797 167.895 376.461 163.794 376.554C159.692 376.646 155.75 378.16 152.642 380.838C149.533 383.515 147.451 387.189 146.752 391.232C146.053 395.274 146.78 399.434 148.808 403L149.114 403.497L147.203 410.397C147.175 410.457 147.161 410.522 147.161 410.588C147.161 410.654 147.175 410.719 147.203 410.779C147.238 410.844 147.291 410.897 147.356 410.932C147.412 410.96 147.474 410.975 147.537 410.975C147.6 410.975 147.663 410.96 147.719 410.932L154.638 409.097ZM169.241 405.274C167.253 405.127 165.337 404.469 163.679 403.363C159.827 401.041 156.656 397.745 154.485 393.806C152.421 389.735 152.574 386.677 155.039 384.403C155.736 383.704 156.656 383.271 157.639 383.179C158.201 383.086 158.779 383.156 159.304 383.379C159.828 383.603 160.278 383.971 160.601 384.441L163.373 388.608C163.458 388.896 163.522 389.189 163.564 389.487C163.615 390.075 163.46 390.663 163.124 391.15C163.124 391.245 162.57 391.819 162.188 392.277C163.268 393.731 164.556 395.019 166.01 396.1C166.335 395.794 166.756 395.431 167.081 395.183C167.478 394.906 167.941 394.737 168.424 394.694C168.907 394.65 169.392 394.733 169.833 394.934L170.043 395.068L174.057 397.839C174.345 398.102 174.601 398.397 174.822 398.719C175.186 399.461 175.261 400.313 175.032 401.108C174.855 401.783 174.539 402.413 174.104 402.96C173.67 403.506 173.127 403.956 172.509 404.28C171.523 404.877 170.393 405.195 169.241 405.198V405.274ZM158.097 385.951C157.885 385.965 157.678 386.022 157.488 386.117C157.297 386.212 157.128 386.344 156.989 386.505C156.033 387.365 155.192 388.837 156.989 392.488C158.894 395.934 161.677 398.815 165.055 400.84C168.266 402.751 169.68 402.599 171.018 401.815C171.349 401.663 171.634 401.425 171.842 401.126C172.05 400.827 172.175 400.477 172.203 400.114L172.088 399.999L168.648 397.591C168.255 397.902 167.885 398.24 167.539 398.604C167.251 398.915 166.867 399.122 166.449 399.191C166.03 399.26 165.6 399.188 165.227 398.986C162.881 397.512 160.875 395.558 159.34 393.252C159.124 392.885 159.036 392.456 159.092 392.034C159.147 391.611 159.342 391.219 159.646 390.92L160.659 389.735L158.25 386.046L158.097 385.951Z" fill="#2AB318"/>
<path d="M649.883 848.734C649.883 851.729 647.436 854.175 644.442 854.175C641.447 854.175 639 851.729 639 848.734C639 845.739 641.447 843.292 644.442 843.292H649.883V848.734Z" fill="#E01E5A"/>
<path d="M652.625 848.734C652.625 845.739 655.072 843.292 658.067 843.292C661.061 843.292 663.508 845.739 663.508 848.734V862.358C663.508 865.353 661.061 867.8 658.067 867.8C655.072 867.8 652.625 865.353 652.625 862.358V848.734Z" fill="#E01E5A"/>
<path d="M658.067 826.883C655.072 826.883 652.625 824.436 652.625 821.442C652.625 818.447 655.072 816 658.067 816C661.061 816 663.508 818.447 663.508 821.442V826.883H658.067Z" fill="#36C5F0"/>
<path d="M658.066 829.625C661.061 829.625 663.508 832.071 663.508 835.066C663.508 838.061 661.061 840.508 658.066 840.508H644.442C641.447 840.508 639 838.061 639 835.066C639 832.071 641.447 829.625 644.442 829.625H658.066Z" fill="#36C5F0"/>
<path d="M679.917 835.066C679.917 832.071 682.364 829.625 685.359 829.625C688.353 829.625 690.8 832.071 690.8 835.066C690.8 838.061 688.353 840.508 685.359 840.508H679.917V835.066Z" fill="#2EB67D"/>
<path d="M677.175 835.066C677.175 838.061 674.728 840.508 671.734 840.508C668.739 840.508 666.292 838.061 666.292 835.066V821.442C666.292 818.447 668.739 816 671.734 816C674.728 816 677.175 818.447 677.175 821.442V835.066Z" fill="#2EB67D"/>
<path d="M671.734 856.917C674.728 856.917 677.175 859.364 677.175 862.358C677.175 865.353 674.728 867.8 671.734 867.8C668.739 867.8 666.292 865.353 666.292 862.358V856.917H671.734Z" fill="#ECB22E"/>
<path d="M671.734 854.175C668.739 854.175 666.292 851.729 666.292 848.734C666.292 845.739 668.739 843.292 671.734 843.292H685.358C688.353 843.292 690.8 845.739 690.8 848.734C690.8 851.729 688.353 854.175 685.358 854.175H671.734Z" fill="#ECB22E"/>
</g>
<defs>
<filter id="filter0_f_58_113" x="-320.3" y="-86.3" width="1691.6" height="1586.6" filterUnits="userSpaceOnUse" color-interpolation-filters="sRGB">
<feFlood flood-opacity="0" result="BackgroundImageFix"/>
<feBlend mode="normal" in="SourceGraphic" in2="BackgroundImageFix" result="shape"/>
<feGaussianBlur stdDeviation="104.65" result="effect1_foregroundBlur_58_113"/>
</filter>
<filter id="filter1_d_58_113" x="351.693" y="363.77" width="307.613" height="307.613" filterUnits="userSpaceOnUse" color-interpolation-filters="sRGB">
<feFlood flood-opacity="0" result="BackgroundImageFix"/>
<feColorMatrix in="SourceAlpha" type="matrix" values="0 0 0 0 0 0 0 0 0 0 0 0 0 0 0 0 0 0 127 0" result="hardAlpha"/>
<feOffset dy="13.0762"/>
<feGaussianBlur stdDeviation="9.15336"/>
<feComposite in2="hardAlpha" operator="out"/>
<feColorMatrix type="matrix" values="0 0 0 0 0.917647 0 0 0 0 0.156863 0 0 0 0 0.305882 0 0 0 0.1 0"/>
<feBlend mode="normal" in2="BackgroundImageFix" result="effect1_dropShadow_58_113"/>
<feBlend mode="normal" in="SourceGraphic" in2="effect1_dropShadow_58_113" result="shape"/>
</filter>
<filter id="filter2_d_58_113" x="354.309" y="358.539" width="302.383" height="302.383" filterUnits="userSpaceOnUse" color-interpolation-filters="sRGB">
<feFlood flood-opacity="0" result="BackgroundImageFix"/>
<feColorMatrix in="SourceAlpha" type="matrix" values="0 0 0 0 0 0 0 0 0 0 0 0 0 0 0 0 0 0 127 0" result="hardAlpha"/>
<feOffset dy="5.23049"/>
<feGaussianBlur stdDeviation="7.84573"/>
<feComposite in2="hardAlpha" operator="out"/>
<feColorMatrix type="matrix" values="0 0 0 0 0 0 0 0 0 0 0 0 0 0 0 0 0 0 0.07 0"/>
<feBlend mode="normal" in2="BackgroundImageFix" result="effect1_dropShadow_58_113"/>
<feBlend mode="normal" in="SourceGraphic" in2="effect1_dropShadow_58_113" result="shape"/>
</filter>
<filter id="filter3_d_58_113" x="608.25" y="799.046" width="114.299" height="114.299" filterUnits="userSpaceOnUse" color-interpolation-filters="sRGB">
<feFlood flood-opacity="0" result="BackgroundImageFix"/>
<feColorMatrix in="SourceAlpha" type="matrix" values="0 0 0 0 0 0 0 0 0 0 0 0 0 0 0 0 0 0 127 0" result="hardAlpha"/>
<feOffset dy="13.7953"/>
<feGaussianBlur stdDeviation="7.8748"/>
<feComposite in2="hardAlpha" operator="out"/>
<feColorMatrix type="matrix" values="0 0 0 0 0.917647 0 0 0 0 0.156863 0 0 0 0 0.305882 0 0 0 0.2 0"/>
<feBlend mode="normal" in2="BackgroundImageFix" result="effect1_dropShadow_58_113"/>
<feBlend mode="normal" in="SourceGraphic" in2="effect1_dropShadow_58_113" result="shape"/>
</filter>
<filter id="filter4_d_58_113" x="164.25" y="125.884" width="183.899" height="114.299" filterUnits="userSpaceOnUse" color-interpolation-filters="sRGB">
<feFlood flood-opacity="0" result="BackgroundImageFix"/>
<feColorMatrix in="SourceAlpha" type="matrix" values="0 0 0 0 0 0 0 0 0 0 0 0 0 0 0 0 0 0 127 0" result="hardAlpha"/>
<feOffset dy="13.7953"/>
<feGaussianBlur stdDeviation="7.8748"/>
<feComposite in2="hardAlpha" operator="out"/>
<feColorMatrix type="matrix" values="0 0 0 0 0.917647 0 0 0 0 0.156863 0 0 0 0 0.305882 0 0 0 0.2 0"/>
<feBlend mode="normal" in2="BackgroundImageFix" result="effect1_dropShadow_58_113"/>
<feBlend mode="normal" in="SourceGraphic" in2="effect1_dropShadow_58_113" result="shape"/>
</filter>
<filter id="filter5_d_58_113" x="89.56" y="724.06" width="266.88" height="115.68" filterUnits="userSpaceOnUse" color-interpolation-filters="sRGB">
<feFlood flood-opacity="0" result="BackgroundImageFix"/>
<feColorMatrix in="SourceAlpha" type="matrix" values="0 0 0 0 0 0 0 0 0 0 0 0 0 0 0 0 0 0 127 0" result="hardAlpha"/>
<feOffset dy="14.4"/>
<feGaussianBlur stdDeviation="8.22"/>
<feComposite in2="hardAlpha" operator="out"/>
<feColorMatrix type="matrix" values="0 0 0 0 0.917647 0 0 0 0 0.156863 0 0 0 0 0.305882 0 0 0 0.2 0"/>
<feBlend mode="normal" in2="BackgroundImageFix" result="effect1_dropShadow_58_113"/>
<feBlend mode="normal" in="SourceGraphic" in2="effect1_dropShadow_58_113" result="shape"/>
</filter>
<filter id="filter6_d_58_113" x="660.814" y="239.165" width="286.586" height="115.401" filterUnits="userSpaceOnUse" color-interpolation-filters="sRGB">
<feFlood flood-opacity="0" result="BackgroundImageFix"/>
<feColorMatrix in="SourceAlpha" type="matrix" values="0 0 0 0 0 0 0 0 0 0 0 0 0 0 0 0 0 0 127 0" result="hardAlpha"/>
<feOffset dy="14.3652"/>
<feGaussianBlur stdDeviation="8.20014"/>
<feComposite in2="hardAlpha" operator="out"/>
<feColorMatrix type="matrix" values="0 0 0 0 0.917647 0 0 0 0 0.156863 0 0 0 0 0.305882 0 0 0 0.2 0"/>
<feBlend mode="normal" in2="BackgroundImageFix" result="effect1_dropShadow_58_113"/>
<feBlend mode="normal" in="SourceGraphic" in2="effect1_dropShadow_58_113" result="shape"/>
</filter>
<filter id="filter7_d_58_113" x="724.56" y="615.06" width="194.88" height="115.68" filterUnits="userSpaceOnUse" color-interpolation-filters="sRGB">
<feFlood flood-opacity="0" result="BackgroundImageFix"/>
<feColorMatrix in="SourceAlpha" type="matrix" values="0 0 0 0 0 0 0 0 0 0 0 0 0 0 0 0 0 0 127 0" result="hardAlpha"/>
<feOffset dy="14.4"/>
<feGaussianBlur stdDeviation="8.22"/>
<feComposite in2="hardAlpha" operator="out"/>
<feColorMatrix type="matrix" values="0 0 0 0 0.917647 0 0 0 0 0.156863 0 0 0 0 0.305882 0 0 0 0.2 0"/>
<feBlend mode="normal" in2="BackgroundImageFix" result="effect1_dropShadow_58_113"/>
<feBlend mode="normal" in="SourceGraphic" in2="effect1_dropShadow_58_113" result="shape"/>
</filter>
<filter id="filter8_d_58_113" x="107.25" y="351.046" width="114.299" height="114.299" filterUnits="userSpaceOnUse" color-interpolation-filters="sRGB">
<feFlood flood-opacity="0" result="BackgroundImageFix"/>
<feColorMatrix in="SourceAlpha" type="matrix" values="0 0 0 0 0 0 0 0 0 0 0 0 0 0 0 0 0 0 127 0" result="hardAlpha"/>
<feOffset dy="13.7953"/>
<feGaussianBlur stdDeviation="7.8748"/>
<feComposite in2="hardAlpha" operator="out"/>
<feColorMatrix type="matrix" values="0 0 0 0 0.917647 0 0 0 0 0.156863 0 0 0 0 0.305882 0 0 0 0.2 0"/>
<feBlend mode="normal" in2="BackgroundImageFix" result="effect1_dropShadow_58_113"/>
<feBlend mode="normal" in="SourceGraphic" in2="effect1_dropShadow_58_113" result="shape"/>
</filter>
<linearGradient id="paint0_linear_58_113" x1="525.5" y1="123" x2="525.5" y2="1291" gradientUnits="userSpaceOnUse">
<stop stop-color="#EA284E" stop-opacity="0.4"/>
<stop offset="1" stop-color="#EA284E"/>
</linearGradient>
<radialGradient id="paint1_radial_58_113" cx="0" cy="0" r="1" gradientUnits="userSpaceOnUse" gradientTransform="translate(507.964 290.164) rotate(90) scale(381.864 482.61)">
<stop stop-color="#F5F5F5"/>
<stop offset="1" stop-color="#ECECEC" stop-opacity="0"/>
</radialGradient>
<clipPath id="clip0_58_113">
<rect width="1011" height="1011" fill="white"/>
</clipPath>
</defs>
</svg>
