<svg width="962" height="828" viewBox="0 0 962 828" fill="none" xmlns="http://www.w3.org/2000/svg">
<g clip-path="url(#clip0_72_739)">
<rect y="186.333" width="962" height="641.333" fill="#15171C"/>
<rect width="224.467" height="641.333" transform="translate(0 186.333)" fill="white"/>
<rect x="32.0664" y="218.4" width="48.1" height="48.1" rx="24.05" fill="#F1F1F4"/>
<rect x="32.0664" y="298.567" width="160.333" height="32.0667" rx="9.62" fill="#F1F1F4"/>
<rect x="32.0664" y="362.7" width="160.333" height="32.0667" rx="9.62" fill="#C4CADA"/>
<rect x="32.0664" y="426.833" width="160.333" height="32.0667" rx="9.62" fill="#F1F1F4"/>
<rect x="32.0664" y="490.967" width="160.333" height="32.0667" rx="9.62" fill="#F1F1F4"/>
<rect x="32.0664" y="763.533" width="160.333" height="32.0667" rx="9.62" fill="#F1F1F4"/>
<rect width="737.533" height="641.333" transform="translate(224.467 186.333)" fill="#F9F9F9"/>
<rect x="288.601" y="250.467" width="96.2" height="32.0667" rx="9.62" fill="#DBDFE9"/>
<rect x="721.501" y="250.467" width="32.0667" height="32.0667" rx="9.62" fill="#DBDFE9"/>
<rect x="769.601" y="250.467" width="32.0667" height="32.0667" rx="9.62" fill="#DBDFE9"/>
<rect x="817.701" y="250.467" width="32.0667" height="32.0667" rx="9.62" fill="#DBDFE9"/>
<rect x="865.801" y="250.467" width="32.0667" height="32.0667" rx="9.62" fill="#DBDFE9"/>
<rect x="288.601" y="330.633" width="609.267" height="176.367" rx="9.62" fill="white"/>
<rect x="320.667" y="362.7" width="256.533" height="112.233" rx="9.62" fill="#F1F1F4"/>
<rect x="609.268" y="362.7" width="256.533" height="16.0333" rx="8.01667" fill="#F1F1F4"/>
<rect x="609.268" y="410.8" width="256.533" height="16.0333" rx="8.01667" fill="#F1F1F4"/>
<rect x="609.268" y="458.9" width="256.533" height="16.0333" rx="8.01667" fill="#F1F1F4"/>
<rect x="288.601" y="555.1" width="609.267" height="208.433" rx="9.62" fill="white"/>
<rect x="320.667" y="587.167" width="256.533" height="144.3" rx="9.62" fill="#F1F1F4"/>
<rect x="609.268" y="587.167" width="256.533" height="144.3" rx="9.62" fill="#F1F1F4"/>
</g>
<rect x="0.801667" y="187.135" width="960.397" height="639.73" stroke="#DBDFE9" stroke-width="1.60333"/>
<g filter="url(#filter0_d_72_739)">
<path d="M124 28.3915C124 14.5891 135.189 3.40002 148.991 3.40002H189.009C202.811 3.40002 214 14.5891 214 28.3915V68.4086C214 82.211 202.811 93.4 189.009 93.4H148.991C135.189 93.4 124 82.211 124 68.4086V28.3915Z" fill="white"/>
<path d="M148.991 4.02502H189.009C202.466 4.02515 213.375 14.9341 213.375 28.3912V68.4088C213.375 81.866 202.466 92.7749 189.009 92.775H148.991C135.534 92.7749 124.625 81.866 124.625 68.4088V28.3912C124.625 14.9341 135.534 4.02515 148.991 4.02502Z" stroke="#99A1B7" stroke-width="1.24957"/>
</g>
<path d="M153.883 54.7336C153.883 57.7285 151.436 60.1751 148.442 60.1751C145.447 60.1751 143 57.7285 143 54.7336C143 51.7386 145.447 49.292 148.442 49.292H153.883V54.7336Z" fill="#E01E5A"/>
<path d="M156.625 54.7336C156.625 51.7386 159.072 49.292 162.067 49.292C165.061 49.292 167.508 51.7386 167.508 54.7336V68.3585C167.508 71.3534 165.061 73.8 162.067 73.8C159.072 73.8 156.625 71.3534 156.625 68.3585V54.7336Z" fill="#E01E5A"/>
<path d="M162.067 32.8831C159.072 32.8831 156.625 30.4365 156.625 27.4415C156.625 24.4466 159.072 22 162.067 22C165.061 22 167.508 24.4466 167.508 27.4415V32.8831H162.067Z" fill="#36C5F0"/>
<path d="M162.066 35.6249C165.061 35.6249 167.508 38.0715 167.508 41.0664C167.508 44.0614 165.061 46.508 162.066 46.508H148.442C145.447 46.508 143 44.0614 143 41.0664C143 38.0715 145.447 35.6249 148.442 35.6249H162.066Z" fill="#36C5F0"/>
<path d="M183.917 41.0664C183.917 38.0715 186.364 35.6249 189.359 35.6249C192.353 35.6249 194.8 38.0715 194.8 41.0664C194.8 44.0614 192.353 46.508 189.359 46.508H183.917V41.0664Z" fill="#2EB67D"/>
<path d="M181.175 41.0664C181.175 44.0614 178.728 46.508 175.734 46.508C172.739 46.508 170.292 44.0614 170.292 41.0664V27.4415C170.292 24.4466 172.739 22 175.734 22C178.728 22 181.175 24.4466 181.175 27.4415V41.0664Z" fill="#2EB67D"/>
<path d="M175.734 62.9169C178.728 62.9169 181.175 65.3635 181.175 68.3585C181.175 71.3534 178.728 73.8 175.734 73.8C172.739 73.8 170.292 71.3534 170.292 68.3585V62.9169H175.734Z" fill="#ECB22E"/>
<path d="M175.734 60.1751C172.739 60.1751 170.292 57.7285 170.292 54.7336C170.292 51.7386 172.739 49.292 175.734 49.292H189.358C192.353 49.292 194.8 51.7386 194.8 54.7336C194.8 57.7285 192.353 60.1751 189.358 60.1751H175.734Z" fill="#ECB22E"/>
<g filter="url(#filter1_d_72_739)">
<path d="M228 27.9914C228 14.189 239.189 3 252.991 3H293.009C306.811 3 318 14.189 318 27.9914V68.0086C318 81.811 306.811 93 293.009 93H252.991C239.189 93 228 81.811 228 68.0086V27.9914Z" fill="white"/>
<path d="M252.991 3.625H293.009C306.466 3.62512 317.375 14.5341 317.375 27.9912V68.0088C317.375 81.4659 306.466 92.3749 293.009 92.375H252.991C239.534 92.3749 228.625 81.4659 228.625 68.0088V27.9912C228.625 14.5341 239.534 3.62512 252.991 3.625Z" stroke="#99A1B7" stroke-width="1.24957"/>
</g>
<g filter="url(#filter2_d_72_739)">
<path d="M332 27.9914C332 14.189 343.189 3 356.991 3H397.009C410.811 3 422 14.189 422 27.9914V68.0086C422 81.811 410.811 93 397.009 93H356.991C343.189 93 332 81.811 332 68.0086V27.9914Z" fill="white"/>
<path d="M356.991 3.625H397.009C410.466 3.62512 421.375 14.5341 421.375 27.9912V68.0088C421.375 81.4659 410.466 92.3749 397.009 92.375H356.991C343.534 92.3749 332.625 81.4659 332.625 68.0088V27.9912C332.625 14.5341 343.534 3.62512 356.991 3.625Z" stroke="#99A1B7" stroke-width="1.24957"/>
</g>
<g filter="url(#filter3_d_72_739)">
<path d="M436 27.9914C436 14.189 447.189 3 460.991 3H501.009C514.811 3 526 14.189 526 27.9914V68.0086C526 81.811 514.811 93 501.009 93H460.991C447.189 93 436 81.811 436 68.0086V27.9914Z" fill="white"/>
<path d="M460.991 3.625H501.009C514.466 3.62512 525.375 14.5341 525.375 27.9912V68.0088C525.375 81.4659 514.466 92.3749 501.009 92.375H460.991C447.534 92.3749 436.625 81.4659 436.625 68.0088V27.9912C436.625 14.5341 447.534 3.62512 460.991 3.625Z" stroke="#99A1B7" stroke-width="1.24957"/>
</g>
<g filter="url(#filter4_d_72_739)">
<path d="M540 27.9914C540 14.189 551.189 3 564.991 3H605.009C618.811 3 630 14.189 630 27.9914V68.0086C630 81.811 618.811 93 605.009 93H564.991C551.189 93 540 81.811 540 68.0086V27.9914Z" fill="white"/>
<path d="M564.991 3.625H605.009C618.466 3.62512 629.375 14.5341 629.375 27.9912V68.0088C629.375 81.4659 618.466 92.3749 605.009 92.375H564.991C551.534 92.3749 540.625 81.4659 540.625 68.0088V27.9912C540.625 14.5341 551.534 3.62512 564.991 3.625Z" stroke="#99A1B7" stroke-width="1.24957"/>
</g>
<g filter="url(#filter5_d_72_739)">
<path d="M644 27.9914C644 14.189 655.189 3 668.991 3H709.009C722.811 3 734 14.189 734 27.9914V68.0086C734 81.811 722.811 93 709.009 93H668.991C655.189 93 644 81.811 644 68.0086V27.9914Z" fill="white"/>
<path d="M668.991 3.625H709.009C722.466 3.62512 733.375 14.5341 733.375 27.9912V68.0088C733.375 81.4659 722.466 92.3749 709.009 92.375H668.991C655.534 92.3749 644.625 81.4659 644.625 68.0088V27.9912C644.625 14.5341 655.534 3.62512 668.991 3.625Z" stroke="#99A1B7" stroke-width="1.24957"/>
</g>
<g filter="url(#filter6_d_72_739)">
<path d="M748 27.9914C748 14.189 759.189 3 772.991 3H813.009C826.811 3 838 14.189 838 27.9914V68.0086C838 81.811 826.811 93 813.009 93H772.991C759.189 93 748 81.811 748 68.0086V27.9914Z" fill="white"/>
<path d="M772.991 3.625H813.009C826.466 3.62512 837.375 14.5341 837.375 27.9912V68.0088C837.375 81.4659 826.466 92.3749 813.009 92.375H772.991C759.534 92.3749 748.625 81.4659 748.625 68.0088V27.9912C748.625 14.5341 759.534 3.62512 772.991 3.625Z" stroke="#99A1B7" stroke-width="1.24957"/>
</g>
<path fill-rule="evenodd" clip-rule="evenodd" d="M246 64.6L256.1 56.8C261.5 63.8 267.2 67.1 273.5 67.1C279.8 67.1 285.4 63.9 290.5 56.9L300.8 64.5C293.4 74.5 284.2 79.8 273.5 79.8C262.9 79.8 253.6 74.5 246 64.6Z" fill="url(#paint0_linear_72_739)"/>
<path fill-rule="evenodd" clip-rule="evenodd" d="M273.5 30.9L255.5 46.4L247.2 36.7L273.6 14L299.8 36.7L291.4 46.3L273.5 30.9Z" fill="url(#paint1_linear_72_739)"/>
<path d="M350.8 17.7547L385.4 15.1547C389.6 14.7547 390.7 15.0547 393.4 16.9547L404.5 24.7547C406.3 26.0547 406.9 26.4547 406.9 27.9547V70.6547C406.9 73.3547 405.9 74.9547 402.5 75.1547L362.3 77.5547C359.7 77.6547 358.5 77.3547 357.2 75.6547L349.1 65.1547C347.6 63.1547 347 61.7547 347 60.0547V22.0547C347 19.8547 348 17.9547 350.8 17.7547Z" fill="white"/>
<path fill-rule="evenodd" clip-rule="evenodd" d="M385.4 15.1547L350.8 17.7547C348 17.9547 347 19.8547 347 22.0547V60.0547C347 61.7547 347.6 63.2547 349.1 65.1547L357.2 75.7547C358.5 77.4547 359.8 77.8547 362.3 77.6547L402.5 75.2547C405.9 75.0547 406.9 73.4547 406.9 70.7547V27.9547C406.9 26.5547 406.4 26.1547 404.7 24.9547C404.6 24.8547 404.5 24.8547 404.4 24.7547L393.4 17.0547C390.8 15.0547 389.7 14.8547 385.4 15.1547ZM363.2 27.2547C359.9 27.4547 359.2 27.5547 357.3 25.9547L352.6 22.2547C352.1 21.7547 352.3 21.1547 353.6 21.0547L386.9 18.6547C389.7 18.4547 391.1 19.3547 392.2 20.2547L397.9 24.3547C398.2 24.4547 398.8 25.1547 398 25.1547L363.6 27.2547H363.2ZM359.4 70.3547V34.0547C359.4 32.4547 359.9 31.7547 361.3 31.6547L400.8 29.3547C402.1 29.2547 402.7 30.0547 402.7 31.6547V67.6547C402.7 69.2547 402.4 70.5547 400.3 70.6547L362.5 72.8547C360.4 73.0547 359.4 72.2547 359.4 70.3547ZM396.7 36.0547C396.9 37.1547 396.7 38.2547 395.6 38.3547L393.8 38.7547V65.5547C392.2 66.4547 390.8 66.8547 389.6 66.8547C387.7 66.8547 387.2 66.2547 385.7 64.4547L373.7 45.6547V63.7547L377.5 64.6547C377.5 64.6547 377.5 66.8547 374.5 66.8547L366.1 67.3547C365.9 66.8547 366.1 65.6547 366.9 65.4547L369.1 64.8547V40.8547L366.1 40.5547C365.9 39.4547 366.5 37.8547 368.2 37.7547L377.2 37.1547L389.6 56.1547V39.3547L386.4 38.9547C386.2 37.6547 387.1 36.6547 388.3 36.5547L396.7 36.0547Z" fill="black"/>
<path d="M481.272 62.9875C478.747 62.9258 476.664 61.812 475.334 59.487C473.971 57.0837 474.031 54.6233 475.484 52.2793C478.944 46.7008 482.449 41.1532 485.933 35.5913C486.646 34.4537 487.342 33.2996 488.087 32.1834C489.077 30.6567 490.624 29.5768 492.398 29.1736C494.173 28.7704 496.034 29.0758 497.587 30.0246C500.866 32.0456 501.964 36.2491 499.921 39.562C495.746 46.362 491.512 53.1288 487.218 59.8622C485.895 61.945 483.889 62.9495 481.272 62.9875Z" fill="#FFCB00"/>
<path d="M459.591 62.9877C457.042 62.9259 454.972 61.7622 453.668 59.4468C452.324 57.0434 452.409 54.5783 453.867 52.2343C457.589 46.2624 461.328 40.2991 465.084 34.3446C465.559 33.5752 466.034 32.7867 466.542 32.041C467.572 30.5475 469.144 29.5137 470.923 29.1585C472.703 28.8032 474.55 29.1545 476.075 30.1378C477.6 31.1211 478.683 32.6594 479.094 34.4269C479.504 36.1943 479.211 38.0523 478.276 39.6073C474.115 46.3257 469.897 53.0204 465.677 59.708C464.307 61.8762 462.291 62.9497 459.591 62.9877Z" fill="#FF3D57"/>
<path d="M503.096 49.3702C506.936 49.3892 510.045 52.4409 510.038 56.1836C510.038 59.9834 506.846 63.047 502.97 62.9995C499.094 62.952 496.04 59.9335 496.045 56.1741C496.05 52.3601 499.17 49.3464 503.096 49.3702Z" fill="#00D647"/>
<path d="M577.585 55.9017C576.582 55.224 575.887 54.2342 575.508 52.9256L577.836 51.966C578.048 52.7712 578.417 53.3952 578.944 53.8382C579.467 54.2811 580.105 54.4992 580.849 54.4992C581.611 54.4992 582.265 54.2677 582.812 53.8046C583.359 53.3417 583.634 52.7511 583.634 52.0364C583.634 51.3049 583.346 50.7077 582.769 50.2447C582.191 49.7817 581.467 49.5501 580.601 49.5501H579.256V47.2451H580.464C581.208 47.2451 581.836 47.0438 582.346 46.6411C582.856 46.2385 583.111 45.6883 583.111 44.987C583.111 44.363 582.883 43.8663 582.426 43.494C581.97 43.1215 581.393 42.9337 580.692 42.9337C580.007 42.9337 579.464 43.1149 579.061 43.4806C578.658 43.8464 578.366 44.2959 578.182 44.8261L575.877 43.8664C576.182 43.0007 576.743 42.2357 577.565 41.5748C578.387 40.9138 579.437 40.5816 580.712 40.5816C581.655 40.5816 582.503 40.7628 583.255 41.1286C584.007 41.4943 584.597 42.0009 585.023 42.6451C585.45 43.2927 585.661 44.0174 585.661 44.8227C585.661 45.6447 585.463 46.3392 585.067 46.9097C584.671 47.48 584.185 47.9162 583.607 48.2216V48.3592C584.369 48.6779 584.99 49.1644 585.48 49.8188C585.966 50.473 586.211 51.2548 586.211 52.1675C586.211 53.0801 585.98 53.8954 585.517 54.6101C585.054 55.3248 584.413 55.8885 583.601 56.2978C582.785 56.7071 581.869 56.9151 580.853 56.9151C579.675 56.9184 578.588 56.5796 577.585 55.9017Z" fill="#0085F7"/>
<path d="M591.889 44.3462L589.332 46.195L588.054 44.2556L592.64 40.9474H594.399V56.5527H591.889V44.3462Z" fill="#0085F7"/>
<path d="M598.921 61.9211H572.079L568.236 67.5826L572.079 74H598.921L602.095 67.1722L598.921 61.9211Z" fill="#00A94B"/>
<path d="M598.921 23H564.026C561.802 23 560 24.8017 560 27.0263V61.9211L566.04 66.2145L572.079 61.9211V35.0789H598.921L603.053 29.0394L598.921 23Z" fill="#0085F7"/>
<path d="M560 61.9211V69.9737C560 72.1983 561.802 74 564.026 74H572.079V61.9211H560Z" fill="#00802E"/>
<path d="M610.999 35.0789L604.959 31.1927L598.92 35.0789V61.921L604.352 64.7562L610.999 61.921V35.0789Z" fill="#FFBC00"/>
<path d="M610.999 35.0789V27.0263C610.999 24.8017 609.197 23 606.973 23H598.92V35.0789H610.999Z" fill="#0067D5"/>
<path d="M598.92 74L610.999 61.9211H598.92V74Z" fill="#FF4131"/>
<path d="M675.44 42.125L688.882 33.5625L675.44 25L662 33.5625L675.44 42.125Z" fill="#0061FF"/>
<path d="M702.322 42.125L715.761 33.5625L702.322 25L688.882 33.5625L702.322 42.125Z" fill="#0061FF"/>
<path d="M688.882 50.6875L675.44 42.125L662 50.6875L675.44 59.25L688.882 50.6875Z" fill="#0061FF"/>
<path d="M702.322 59.25L715.761 50.6875L702.322 42.125L688.882 50.6875L702.322 59.25Z" fill="#0061FF"/>
<path d="M702.322 62.1041L688.882 53.5416L675.44 62.1041L688.882 70.6666L702.322 62.1041Z" fill="#0061FF"/>
<path d="M806.324 43.8851C806.74 43.8351 807.138 43.8339 807.503 43.8851C807.715 43.3992 807.751 42.5629 807.561 41.6526C807.278 40.2985 806.896 39.4792 806.105 39.6066C805.314 39.7341 805.284 40.7149 805.568 42.069C805.727 42.8303 806.009 43.4823 806.324 43.8851Z" fill="black"/>
<path d="M799.532 44.9571C800.099 45.2051 800.446 45.3701 800.582 45.2267C800.67 45.1368 800.644 44.9662 800.508 44.7454C800.23 44.2891 799.654 43.8271 799.045 43.5665C797.798 43.0295 796.311 43.2081 795.164 44.0331C794.785 44.3107 794.426 44.6953 794.478 44.9286C794.495 45.0037 794.55 45.0606 794.684 45.0799C794.995 45.1152 796.087 44.5645 797.344 44.4871C798.231 44.4325 798.967 44.709 799.532 44.9571Z" fill="black"/>
<path d="M798.393 45.6068C797.655 45.7228 797.249 45.9664 796.988 46.1928C796.764 46.3874 796.627 46.6024 796.628 46.7538L796.685 46.888L796.807 46.9347C796.973 46.9347 797.346 46.7856 797.346 46.7856C798.372 46.4181 799.049 46.4625 799.72 46.5387C800.091 46.5808 800.266 46.6036 800.347 46.4761C800.37 46.4397 800.4 46.3612 800.326 46.2406C800.153 45.9607 799.409 45.4873 798.394 45.6079L798.393 45.6068Z" fill="black"/>
<path d="M804.031 47.9918C804.532 48.2376 805.082 48.1409 805.262 47.7756C805.442 47.4103 805.181 46.9153 804.681 46.6695C804.18 46.4238 803.629 46.5205 803.449 46.8857C803.27 47.251 803.53 47.746 804.031 47.9918Z" fill="black"/>
<path d="M807.25 45.1801C806.843 45.1732 806.505 45.6193 806.496 46.178C806.487 46.7356 806.809 47.193 807.215 47.1998C807.622 47.2067 807.96 46.7606 807.969 46.203C807.978 45.6455 807.656 45.188 807.25 45.1801Z" fill="black"/>
<path d="M779.931 55.2368C779.83 55.1105 779.664 55.1492 779.504 55.1856C779.391 55.2118 779.263 55.2414 779.125 55.2391C778.825 55.2334 778.572 55.106 778.429 54.8875C778.244 54.603 778.255 54.1786 778.459 53.6927L778.555 53.4753C778.881 52.7437 779.426 51.5182 778.814 50.3518C778.353 49.4734 777.6 48.926 776.695 48.8111C775.827 48.7007 774.933 49.0227 774.363 49.652C773.462 50.6443 773.322 51.9949 773.497 52.4729C773.56 52.6481 773.66 52.6959 773.732 52.7061C773.886 52.7266 774.111 52.6151 774.253 52.2339L774.294 52.1099C774.358 51.9085 774.475 51.533 774.667 51.2314C774.9 50.8684 775.261 50.6181 775.687 50.5271C776.119 50.4349 776.562 50.5168 776.932 50.7592C777.562 51.1722 777.805 51.9437 777.536 52.6811C777.397 53.0623 777.171 53.7905 777.221 54.3891C777.322 55.6009 778.068 56.088 778.737 56.1392C779.387 56.1642 779.843 55.7978 779.958 55.5304C780.026 55.3722 779.968 55.2766 779.931 55.2345V55.2368Z" fill="black"/>
<path d="M817.511 53.0202C817.486 52.9326 817.325 52.342 817.103 51.6308L816.651 50.4189C817.541 49.0865 817.557 47.8951 817.438 47.2203C817.312 46.384 816.964 45.6705 816.262 44.9343C815.56 44.1969 814.125 43.4425 812.107 42.877L811.049 42.5834C811.043 42.5401 810.993 40.088 810.948 39.0354C810.915 38.2742 810.849 37.0873 810.48 35.9164C810.041 34.3325 809.276 32.9476 808.32 32.0612C810.957 29.3291 812.602 26.3182 812.598 23.7364C812.59 18.7706 806.492 17.2674 798.976 20.3796L797.384 21.0555C797.377 21.0486 794.505 18.2312 794.462 18.1937C785.894 10.7199 759.102 40.4987 767.668 47.7312L769.54 49.3175C769.054 50.5748 768.864 52.0165 769.02 53.5664C769.22 55.5566 770.246 57.4648 771.911 58.9395C773.491 60.3391 775.568 61.2256 777.584 61.2233C780.916 68.9052 788.532 73.6173 797.463 73.8824C807.041 74.1669 815.083 69.6722 818.452 61.5977C818.673 61.031 819.608 58.4775 819.608 56.2234C819.608 53.9578 818.328 53.019 817.512 53.019L817.511 53.0202ZM778.32 59.0658C778.028 59.1159 777.731 59.1352 777.432 59.1284C774.539 59.051 771.414 56.4464 771.103 53.357C770.76 49.9433 772.504 47.3148 775.593 46.6923C775.962 46.6184 776.409 46.5751 776.891 46.6002C778.621 46.6946 781.171 48.0237 781.754 51.7935C782.269 55.1321 781.45 58.5322 778.32 59.0658ZM775.089 44.6498C773.166 45.0242 771.472 46.1131 770.435 47.6186C769.816 47.102 768.661 46.1018 768.458 45.7126C766.803 42.5709 770.263 36.4626 772.68 33.0136C778.654 24.4885 788.01 18.0366 792.342 19.2064C793.046 19.4055 795.378 22.1092 795.378 22.1092C795.378 22.1092 791.048 24.5113 787.034 27.8601C781.624 32.0259 777.537 38.0796 775.089 44.6498ZM805.458 57.7891C805.52 57.7629 805.563 57.6901 805.557 57.6196C805.547 57.5319 805.469 57.4682 805.381 57.4773C805.381 57.4773 800.849 58.1487 796.567 56.5807C797.034 55.065 798.274 55.6123 800.148 55.7637C803.527 55.9651 806.554 55.4712 808.792 54.8294C810.731 54.273 813.277 53.1761 815.256 51.6149C815.923 53.0805 816.158 54.6929 816.158 54.6929C816.158 54.6929 816.675 54.6007 817.106 54.8659C817.514 55.1173 817.813 55.6385 817.609 56.988C817.193 59.5085 816.122 61.5533 814.322 63.4354C813.226 64.6154 811.896 65.6406 810.373 66.3859C809.565 66.8104 808.704 67.1779 807.795 67.4749C801.008 69.6915 794.06 67.2542 791.821 62.021C791.642 61.6272 791.491 61.2153 791.371 60.7852C790.417 57.3362 791.227 53.1988 793.76 50.5942C793.916 50.428 794.075 50.2323 794.075 49.9865C794.075 49.7806 793.944 49.5644 793.832 49.4108C792.945 48.1261 789.876 45.9356 790.493 41.697C790.936 38.6519 793.598 36.5081 796.081 36.6356L796.71 36.672C797.786 36.7357 798.725 36.8734 799.611 36.9109C801.094 36.9747 802.426 36.7596 804.004 35.4442C804.537 35.0004 804.964 34.6158 805.686 34.4929C805.762 34.4804 805.951 34.4121 806.328 34.4303C806.714 34.4508 807.08 34.5566 807.41 34.7763C808.675 35.6183 808.855 37.6585 808.921 39.1503C808.959 40.0026 809.061 42.0634 809.097 42.6539C809.177 44.0069 809.532 44.1969 810.251 44.4347C810.657 44.5679 811.032 44.6669 811.585 44.8228C813.26 45.2927 814.253 45.7706 814.88 46.3828C815.254 46.7663 815.428 47.1725 815.481 47.5617C815.679 49.0034 814.363 50.7831 810.877 52.4012C807.068 54.1695 802.447 54.6166 799.254 54.2616L798.135 54.1353C795.581 53.7917 794.124 57.0927 795.657 59.3537C796.644 60.8114 799.336 61.7592 802.028 61.7604C808.201 61.7615 812.946 59.125 814.711 56.8481L814.852 56.6467C814.938 56.5158 814.867 56.4441 814.759 56.5181C813.317 57.5046 806.912 61.4224 800.06 60.2436C800.06 60.2436 799.228 60.107 798.469 59.8112C797.864 59.5768 796.601 58.9953 796.448 57.6981C801.977 59.4083 805.458 57.7914 805.458 57.7914V57.7891ZM796.699 56.7548L796.7 56.7559L796.701 56.7582L796.699 56.7548ZM786.122 32.9772C788.246 30.5228 790.861 28.3892 793.202 27.191C793.283 27.1501 793.37 27.2377 793.325 27.3173C793.14 27.6541 792.781 28.3756 792.668 28.9218C792.649 29.0071 792.743 29.0708 792.814 29.0219C794.271 28.0285 796.806 26.9646 799.03 26.828C799.125 26.8223 799.171 26.9441 799.096 27.0033C798.758 27.2627 798.388 27.6211 798.118 27.9841C798.073 28.0456 798.116 28.1343 798.192 28.1355C799.753 28.1469 801.954 28.693 803.388 29.4975C803.484 29.5522 803.416 29.7399 803.307 29.7149C801.137 29.2176 797.584 28.8398 793.894 29.7399C790.6 30.5433 788.085 31.7836 786.251 33.1183C786.159 33.1855 786.047 33.0649 786.122 32.9772Z" fill="black"/>
<path d="M170 97V122C170 133.598 179.402 143 191 143H457C468.598 143 478 152.402 478 164V186" stroke="#292D34"/>
<path d="M479 190V165C479 153.402 488.402 144 500 144H773C784.598 144 794 134.598 794 123V101" stroke="#292D34"/>
<path d="M273 97V122C273 133.598 282.402 143 294 143H457C468.598 143 478 152.402 478 164V186" stroke="#292D34"/>
<path d="M685 97V122C685 133.598 675.598 143 664 143H501C489.402 143 480 152.402 480 164V186" stroke="#292D34"/>
<path d="M378 97V122C378 133.598 387.402 143 399 143H458C469.598 143 479 152.402 479 164V186" stroke="#292D34"/>
<path d="M582 97V122C582 133.598 572.598 143 561 143H502C490.402 143 481 152.402 481 164V186" stroke="#292D34"/>
<defs>
<filter id="filter0_d_72_739" x="106.881" y="1.27575" width="124.238" height="124.238" filterUnits="userSpaceOnUse" color-interpolation-filters="sRGB">
<feFlood flood-opacity="0" result="BackgroundImageFix"/>
<feColorMatrix in="SourceAlpha" type="matrix" values="0 0 0 0 0 0 0 0 0 0 0 0 0 0 0 0 0 0 127 0" result="hardAlpha"/>
<feOffset dy="14.9949"/>
<feGaussianBlur stdDeviation="8.55957"/>
<feComposite in2="hardAlpha" operator="out"/>
<feColorMatrix type="matrix" values="0 0 0 0 0.181828 0 0 0 0 0.181828 0 0 0 0 0.181828 0 0 0 0.2 0"/>
<feBlend mode="normal" in2="BackgroundImageFix" result="effect1_dropShadow_72_739"/>
<feBlend mode="normal" in="SourceGraphic" in2="effect1_dropShadow_72_739" result="shape"/>
</filter>
<filter id="filter1_d_72_739" x="210.881" y="0.875729" width="124.238" height="124.238" filterUnits="userSpaceOnUse" color-interpolation-filters="sRGB">
<feFlood flood-opacity="0" result="BackgroundImageFix"/>
<feColorMatrix in="SourceAlpha" type="matrix" values="0 0 0 0 0 0 0 0 0 0 0 0 0 0 0 0 0 0 127 0" result="hardAlpha"/>
<feOffset dy="14.9949"/>
<feGaussianBlur stdDeviation="8.55957"/>
<feComposite in2="hardAlpha" operator="out"/>
<feColorMatrix type="matrix" values="0 0 0 0 0.181828 0 0 0 0 0.181828 0 0 0 0 0.181828 0 0 0 0.2 0"/>
<feBlend mode="normal" in2="BackgroundImageFix" result="effect1_dropShadow_72_739"/>
<feBlend mode="normal" in="SourceGraphic" in2="effect1_dropShadow_72_739" result="shape"/>
</filter>
<filter id="filter2_d_72_739" x="314.881" y="0.875729" width="124.238" height="124.238" filterUnits="userSpaceOnUse" color-interpolation-filters="sRGB">
<feFlood flood-opacity="0" result="BackgroundImageFix"/>
<feColorMatrix in="SourceAlpha" type="matrix" values="0 0 0 0 0 0 0 0 0 0 0 0 0 0 0 0 0 0 127 0" result="hardAlpha"/>
<feOffset dy="14.9949"/>
<feGaussianBlur stdDeviation="8.55957"/>
<feComposite in2="hardAlpha" operator="out"/>
<feColorMatrix type="matrix" values="0 0 0 0 0.181828 0 0 0 0 0.181828 0 0 0 0 0.181828 0 0 0 0.2 0"/>
<feBlend mode="normal" in2="BackgroundImageFix" result="effect1_dropShadow_72_739"/>
<feBlend mode="normal" in="SourceGraphic" in2="effect1_dropShadow_72_739" result="shape"/>
</filter>
<filter id="filter3_d_72_739" x="418.881" y="0.875729" width="124.238" height="124.238" filterUnits="userSpaceOnUse" color-interpolation-filters="sRGB">
<feFlood flood-opacity="0" result="BackgroundImageFix"/>
<feColorMatrix in="SourceAlpha" type="matrix" values="0 0 0 0 0 0 0 0 0 0 0 0 0 0 0 0 0 0 127 0" result="hardAlpha"/>
<feOffset dy="14.9949"/>
<feGaussianBlur stdDeviation="8.55957"/>
<feComposite in2="hardAlpha" operator="out"/>
<feColorMatrix type="matrix" values="0 0 0 0 0.181828 0 0 0 0 0.181828 0 0 0 0 0.181828 0 0 0 0.2 0"/>
<feBlend mode="normal" in2="BackgroundImageFix" result="effect1_dropShadow_72_739"/>
<feBlend mode="normal" in="SourceGraphic" in2="effect1_dropShadow_72_739" result="shape"/>
</filter>
<filter id="filter4_d_72_739" x="522.881" y="0.875729" width="124.238" height="124.238" filterUnits="userSpaceOnUse" color-interpolation-filters="sRGB">
<feFlood flood-opacity="0" result="BackgroundImageFix"/>
<feColorMatrix in="SourceAlpha" type="matrix" values="0 0 0 0 0 0 0 0 0 0 0 0 0 0 0 0 0 0 127 0" result="hardAlpha"/>
<feOffset dy="14.9949"/>
<feGaussianBlur stdDeviation="8.55957"/>
<feComposite in2="hardAlpha" operator="out"/>
<feColorMatrix type="matrix" values="0 0 0 0 0.181828 0 0 0 0 0.181828 0 0 0 0 0.181828 0 0 0 0.2 0"/>
<feBlend mode="normal" in2="BackgroundImageFix" result="effect1_dropShadow_72_739"/>
<feBlend mode="normal" in="SourceGraphic" in2="effect1_dropShadow_72_739" result="shape"/>
</filter>
<filter id="filter5_d_72_739" x="626.881" y="0.875729" width="124.238" height="124.238" filterUnits="userSpaceOnUse" color-interpolation-filters="sRGB">
<feFlood flood-opacity="0" result="BackgroundImageFix"/>
<feColorMatrix in="SourceAlpha" type="matrix" values="0 0 0 0 0 0 0 0 0 0 0 0 0 0 0 0 0 0 127 0" result="hardAlpha"/>
<feOffset dy="14.9949"/>
<feGaussianBlur stdDeviation="8.55957"/>
<feComposite in2="hardAlpha" operator="out"/>
<feColorMatrix type="matrix" values="0 0 0 0 0.181828 0 0 0 0 0.181828 0 0 0 0 0.181828 0 0 0 0.2 0"/>
<feBlend mode="normal" in2="BackgroundImageFix" result="effect1_dropShadow_72_739"/>
<feBlend mode="normal" in="SourceGraphic" in2="effect1_dropShadow_72_739" result="shape"/>
</filter>
<filter id="filter6_d_72_739" x="730.881" y="0.875729" width="124.238" height="124.238" filterUnits="userSpaceOnUse" color-interpolation-filters="sRGB">
<feFlood flood-opacity="0" result="BackgroundImageFix"/>
<feColorMatrix in="SourceAlpha" type="matrix" values="0 0 0 0 0 0 0 0 0 0 0 0 0 0 0 0 0 0 127 0" result="hardAlpha"/>
<feOffset dy="14.9949"/>
<feGaussianBlur stdDeviation="8.55957"/>
<feComposite in2="hardAlpha" operator="out"/>
<feColorMatrix type="matrix" values="0 0 0 0 0.181828 0 0 0 0 0.181828 0 0 0 0 0.181828 0 0 0 0.2 0"/>
<feBlend mode="normal" in2="BackgroundImageFix" result="effect1_dropShadow_72_739"/>
<feBlend mode="normal" in="SourceGraphic" in2="effect1_dropShadow_72_739" result="shape"/>
</filter>
<linearGradient id="paint0_linear_72_739" x1="246" y1="68.3112" x2="300.845" y2="68.3112" gradientUnits="userSpaceOnUse">
<stop stop-color="#8930FD"/>
<stop offset="1" stop-color="#49CCF9"/>
</linearGradient>
<linearGradient id="paint1_linear_72_739" x1="247.195" y1="30.1944" x2="299.745" y2="30.1944" gradientUnits="userSpaceOnUse">
<stop stop-color="#FF02F0"/>
<stop offset="1" stop-color="#FFC800"/>
</linearGradient>
<clipPath id="clip0_72_739">
<rect y="186.333" width="962" height="641.333" fill="white"/>
</clipPath>
</defs>
</svg>
