<?xml version="1.0" encoding="UTF-8"?> <svg xmlns="http://www.w3.org/2000/svg" width="80" height="80" viewBox="0 0 80 80" fill="none"><rect x="1" y="1" width="78" height="78" rx="39" fill="white"></rect><rect x="1" y="1" width="78" height="78" rx="39" stroke="#09132D" stroke-width="2"></rect><g clip-path="url(#clip0_1167_321)"><path d="M58.789 38.9227L41.6603 22.3559L40 20.75L27.1062 33.2208L21.211 38.9227C20.5963 39.5179 20.5963 40.4821 21.211 41.0773L32.9909 52.4708L40 59.25L52.8938 46.7792L53.0934 46.5861L58.789 41.0773C59.4037 40.4821 59.4037 39.5179 58.789 38.9227ZM40 45.6917L34.1153 40L40 34.3083L45.8847 40L40 45.6917Z" fill="#2684FF"></path><path fill-rule="evenodd" clip-rule="evenodd" d="M39.9999 34.3083C36.1471 30.5813 36.1283 24.5449 39.9579 20.7957L27.0798 33.2461L34.0889 40.0253L39.9999 34.3083Z" fill="url(#paint0_linear_1167_321)"></path><path fill-rule="evenodd" clip-rule="evenodd" d="M45.9004 39.9846L40 45.6914C41.8597 47.4891 42.9046 49.9278 42.9046 52.4706C42.9046 55.0135 41.8597 57.4522 40 59.2499L52.9096 46.7638L45.9004 39.9846Z" fill="url(#paint1_linear_1167_321)"></path></g><defs><linearGradient id="paint0_linear_1167_321" x1="38.9491" y1="28.5505" x2="29.1326" y2="32.8365" gradientUnits="userSpaceOnUse"><stop offset="0.18" stop-color="#0052CC"></stop><stop offset="1" stop-color="#2684FF"></stop></linearGradient><linearGradient id="paint1_linear_1167_321" x1="41.1243" y1="51.3831" x2="50.9231" y2="47.1275" gradientUnits="userSpaceOnUse"><stop offset="0.18" stop-color="#0052CC"></stop><stop offset="1" stop-color="#2684FF"></stop></linearGradient><clipPath id="clip0_1167_321"><rect width="40" height="40" fill="white" transform="translate(20 20)"></rect></clipPath></defs></svg> 