<svg width="135" height="135" viewBox="0 0 135 135" fill="none" xmlns="http://www.w3.org/2000/svg">
<path d="M0 67.5C0 11.9138 11.9138 0 67.5 0C123.086 0 135 11.9138 135 67.5C135 123.086 123.086 135 67.5 135C11.9138 135 0 123.086 0 67.5Z" fill="#EA284E"/>
<path d="M29.3251 68.4736H66.317V86.9695C66.317 97.1846 58.0361 105.465 47.821 105.465C37.606 105.465 29.3251 97.1846 29.3251 86.9695V68.4736Z" fill="white"/>
<path d="M68.882 29.6393H87.3779C97.593 29.6393 105.874 38.1026 105.874 48.3176C105.874 58.3331 97.7547 66.6312 87.7392 66.6312H68.882V29.6393Z" fill="white"/>
<path d="M65.1249 29.6393C60.4236 29.6393 55.7683 30.5652 51.4249 32.3643C47.0814 34.1635 43.1349 36.8005 39.8106 40.1248C36.4863 43.4491 33.8493 47.3956 32.0502 51.7391C30.2511 56.0825 29.3251 60.7378 29.3251 65.4391L65.1249 65.4391V29.6393Z" fill="white"/>
<circle cx="87.3468" cy="90.6982" r="5.86501" fill="white"/>
</svg>
