<svg width="2681" height="910" viewBox="0 0 2681 910" fill="none" xmlns="http://www.w3.org/2000/svg">
<path d="M0 450.511C0 79.5152 79.5152 0 450.511 0C821.507 0 901.022 79.5152 901.022 450.511C901.022 821.507 821.507 901.022 450.511 901.022C79.5152 901.022 0 821.507 0 450.511Z" fill="#EA284E"/>
<path d="M195.723 457.009H442.616V580.455C442.616 648.633 387.347 703.902 319.169 703.902V703.902C250.992 703.902 195.723 648.633 195.723 580.455V457.009Z" fill="white"/>
<path d="M459.734 197.819H583.181C651.359 197.819 706.627 254.306 706.627 322.483V322.483C706.627 389.329 652.438 444.712 585.592 444.712H459.734V197.819Z" fill="white"/>
<path d="M434.659 197.819C403.282 197.819 372.211 204 343.222 216.007C314.233 228.015 287.893 245.615 265.706 267.802C243.518 289.99 225.918 316.33 213.911 345.319C201.903 374.308 195.723 405.378 195.723 436.756L434.659 436.756L434.659 197.819Z" fill="white"/>
<circle cx="582.973" cy="605.342" r="39.1445" fill="white"/>
<path d="M1343.17 381.475C1343.17 405.974 1337.55 428.466 1326.3 448.949C1315.05 469.031 1297.78 485.297 1274.49 497.748C1251.19 510.199 1222.28 516.424 1187.74 516.424H1123.88V668.242H1020.86V245.32H1187.74C1221.47 245.32 1249.99 251.144 1273.28 262.791C1296.58 274.439 1314.05 290.504 1325.7 310.988C1337.34 331.471 1343.17 354.967 1343.17 381.475ZM1179.9 434.491C1199.58 434.491 1214.24 429.872 1223.88 420.634C1233.52 411.396 1238.34 398.343 1238.34 381.475C1238.34 364.606 1233.52 351.553 1223.88 342.315C1214.24 333.078 1199.58 328.459 1179.9 328.459H1123.88V434.491H1179.9ZM1376.32 499.555C1376.32 465.015 1382.74 434.691 1395.6 408.585C1408.85 382.479 1426.72 362.397 1449.21 348.34C1471.71 334.283 1496.81 327.254 1524.52 327.254C1548.22 327.254 1568.9 332.074 1586.57 341.713C1604.65 351.352 1618.5 364.004 1628.14 379.667V332.074H1731.16V668.242H1628.14V620.648C1618.1 636.312 1604.04 648.964 1585.97 658.603C1568.3 668.242 1547.61 673.062 1523.92 673.062C1496.61 673.062 1471.71 666.033 1449.21 651.976C1426.72 637.517 1408.85 617.235 1395.6 591.128C1382.74 564.62 1376.32 534.096 1376.32 499.555ZM1628.14 500.158C1628.14 474.453 1620.91 454.171 1606.45 439.31C1592.4 424.45 1575.13 417.019 1554.64 417.019C1534.16 417.019 1516.69 424.45 1502.23 439.31C1488.17 453.769 1481.14 473.851 1481.14 499.555C1481.14 525.26 1488.17 545.743 1502.23 561.006C1516.69 575.866 1534.16 583.296 1554.64 583.296C1575.13 583.296 1592.4 575.866 1606.45 561.006C1620.91 546.145 1628.14 525.863 1628.14 500.158ZM1993.05 580.887V668.242H1940.64C1903.29 668.242 1874.17 659.205 1853.29 641.132C1832.4 622.657 1821.96 592.735 1821.96 551.366V417.622H1780.99V332.074H1821.96V250.14H1924.98V332.074H1992.45V417.622H1924.98V552.571C1924.98 562.612 1927.39 569.842 1932.21 574.26C1937.03 578.678 1945.06 580.887 1956.31 580.887H1993.05ZM2153.46 388.102C2165.51 369.626 2180.57 355.168 2198.64 344.725C2216.72 333.881 2236.8 328.459 2258.89 328.459V437.503H2230.57C2204.87 437.503 2185.59 443.126 2172.74 454.371C2159.88 465.216 2153.46 484.494 2153.46 512.207V668.242H2050.44V332.074H2153.46V388.102ZM2287.64 499.555C2287.64 465.015 2294.07 434.691 2306.92 408.585C2320.18 382.479 2338.05 362.397 2360.54 348.34C2383.03 334.283 2408.14 327.254 2435.85 327.254C2459.54 327.254 2480.23 332.074 2497.9 341.713C2515.97 351.352 2529.83 364.004 2539.47 379.667V332.074H2642.49V668.242H2539.47V620.648C2529.43 636.312 2515.37 648.964 2497.3 658.603C2479.63 668.242 2458.94 673.062 2435.25 673.062C2407.93 673.062 2383.03 666.033 2360.54 651.976C2338.05 637.517 2320.18 617.235 2306.92 591.128C2294.07 564.62 2287.64 534.096 2287.64 499.555ZM2539.47 500.158C2539.47 474.453 2532.24 454.171 2517.78 439.31C2503.72 424.45 2486.45 417.019 2465.97 417.019C2445.49 417.019 2428.02 424.45 2413.56 439.31C2399.5 453.769 2392.47 473.851 2392.47 499.555C2392.47 525.26 2399.5 545.743 2413.56 561.006C2428.02 575.866 2445.49 583.296 2465.97 583.296C2486.45 583.296 2503.72 575.866 2517.78 561.006C2532.24 546.145 2539.47 525.863 2539.47 500.158Z" fill="black"/>
</svg>
