<svg width="1107" height="316" viewBox="0 0 1107 316" fill="none" xmlns="http://www.w3.org/2000/svg">
<path d="M157.881 0C245.076 0.000156685 315.761 70.6859 315.761 157.881C315.761 245.076 245.076 315.761 157.881 315.761C70.6859 315.761 0.000156726 245.076 0 157.881C0 70.6858 70.6858 0 157.881 0ZM104.234 189.161C92.8295 189.161 83.5841 198.407 83.584 209.812C83.584 221.217 92.8294 230.463 104.234 230.463H126.475C137.88 230.463 147.125 221.217 147.125 209.812C147.125 198.407 137.879 189.161 126.475 189.161H104.234ZM191.604 189.161C180.198 189.161 170.952 198.407 170.952 209.812C170.952 221.217 180.198 230.463 191.604 230.463H213.843C225.248 230.463 234.493 221.217 234.493 209.812C234.493 198.407 225.248 189.161 213.843 189.161H191.604ZM74.041 137.277C62.642 137.277 53.4014 146.518 53.4014 157.917C53.4016 169.316 62.6422 178.557 74.041 178.557H243.745C255.144 178.556 264.385 169.316 264.385 157.917C264.385 146.518 255.144 137.278 243.745 137.277H74.041ZM102.65 85.9062C91.2453 85.9062 81.9991 95.1515 81.999 106.557C81.999 117.962 91.2452 127.208 102.65 127.208H213.847C225.252 127.208 234.498 117.962 234.498 106.557C234.498 95.1515 225.252 85.9062 213.847 85.9062H102.65Z" fill="#242424"/>
<path d="M418.48 248L380.487 108.391H419.661L441.293 202.191H442.566L465.107 108.391H503.554L526.458 201.646H527.64L548.908 108.391H587.991L550.09 248H509.098L485.103 160.199H483.376L459.381 248H418.48ZM648.457 250.636C639.549 250.636 631.612 249.091 624.643 246C617.675 242.85 612.161 238.214 608.101 232.094C604.102 225.913 602.102 218.218 602.102 209.008C602.102 201.252 603.526 194.738 606.374 189.466C609.222 184.195 613.1 179.953 618.008 176.741C622.916 173.53 628.491 171.106 634.732 169.47C641.034 167.834 647.639 166.683 654.546 166.016C662.666 165.168 669.21 164.38 674.179 163.653C679.147 162.865 682.753 161.714 684.995 160.199C687.237 158.684 688.358 156.442 688.358 153.473V152.928C688.358 147.172 686.54 142.718 682.904 139.567C679.329 136.416 674.239 134.841 667.635 134.841C660.666 134.841 655.122 136.386 651.002 139.476C646.881 142.506 644.154 146.323 642.821 150.928L607.01 148.02C608.828 139.537 612.403 132.205 617.735 126.024C623.068 119.783 629.945 114.996 638.368 111.664C646.851 108.27 656.667 106.574 667.816 106.574C675.572 106.574 682.995 107.483 690.085 109.3C697.235 111.118 703.567 113.936 709.081 117.753C714.656 121.571 719.049 126.479 722.26 132.478C725.472 138.416 727.077 145.536 727.077 153.837V248H690.357V228.64H689.267C687.025 233.003 684.025 236.851 680.268 240.183C676.512 243.455 671.997 246.031 666.726 247.909C661.454 249.727 655.364 250.636 648.457 250.636ZM659.545 223.914C665.241 223.914 670.27 222.793 674.633 220.551C678.996 218.248 682.42 215.158 684.904 211.28C687.388 207.402 688.63 203.009 688.63 198.101V183.286C687.419 184.073 685.752 184.8 683.631 185.467C681.571 186.073 679.238 186.649 676.633 187.194C674.027 187.679 671.422 188.133 668.816 188.557C666.211 188.921 663.848 189.254 661.727 189.557C657.182 190.224 653.213 191.284 649.82 192.738C646.427 194.193 643.791 196.162 641.912 198.646C640.034 201.07 639.095 204.1 639.095 207.735C639.095 213.007 641.004 217.036 644.821 219.824C648.699 222.551 653.607 223.914 659.545 223.914ZM796.927 250.636C788.02 250.636 780.082 249.091 773.114 246C766.145 242.85 760.631 238.214 756.571 232.094C752.572 225.913 750.573 218.218 750.573 209.008C750.573 201.252 751.997 194.738 754.845 189.466C757.692 184.195 761.57 179.953 766.479 176.741C771.387 173.53 776.961 171.106 783.203 169.47C789.504 167.834 796.109 166.683 803.017 166.016C811.136 165.168 817.681 164.38 822.649 163.653C827.618 162.865 831.223 161.714 833.465 160.199C835.707 158.684 836.828 156.442 836.828 153.473V152.928C836.828 147.172 835.01 142.718 831.375 139.567C827.8 136.416 822.71 134.841 816.105 134.841C809.137 134.841 803.592 136.386 799.472 139.476C795.352 142.506 792.625 146.323 791.292 150.928L755.481 148.02C757.299 139.537 760.874 132.205 766.206 126.024C771.538 119.783 778.416 114.996 786.838 111.664C795.321 108.27 805.138 106.574 816.287 106.574C824.043 106.574 831.466 107.483 838.555 109.3C845.705 111.118 852.037 113.936 857.551 117.753C863.126 121.571 867.519 126.479 870.731 132.478C873.942 138.416 875.548 145.536 875.548 153.837V248H838.828V228.64H837.737C835.495 233.003 832.496 236.851 828.739 240.183C824.982 243.455 820.468 246.031 815.196 247.909C809.924 249.727 803.835 250.636 796.927 250.636ZM808.016 223.914C813.712 223.914 818.741 222.793 823.104 220.551C827.466 218.248 830.89 215.158 833.374 211.28C835.859 207.402 837.101 203.009 837.101 198.101V183.286C835.889 184.073 834.223 184.8 832.102 185.467C830.042 186.073 827.709 186.649 825.103 187.194C822.498 187.679 819.892 188.133 817.287 188.557C814.681 188.921 812.318 189.254 810.197 189.557C805.653 190.224 801.684 191.284 798.29 192.738C794.897 194.193 792.261 196.162 790.383 198.646C788.505 201.07 787.565 204.1 787.565 207.735C787.565 213.007 789.474 217.036 793.291 219.824C797.169 222.551 802.078 223.914 808.016 223.914ZM944.307 61.8553V248H905.587V61.8553H944.307ZM1014.04 61.8553V248H975.323V61.8553H1014.04ZM1067.69 250.363C1061.69 250.363 1056.54 248.242 1052.24 244.001C1048 239.699 1045.88 234.548 1045.88 228.549C1045.88 222.611 1048 217.521 1052.24 213.28C1056.54 209.038 1061.69 206.917 1067.69 206.917C1073.51 206.917 1078.6 209.038 1082.96 213.28C1087.32 217.521 1089.51 222.611 1089.51 228.549C1089.51 232.549 1088.48 236.214 1086.41 239.547C1084.42 242.819 1081.78 245.455 1078.51 247.455C1075.24 249.394 1071.63 250.363 1067.69 250.363Z" fill="#242424"/>
</svg>
