<svg width="3922" height="1649" viewBox="0 0 3922 1649" fill="none" xmlns="http://www.w3.org/2000/svg">
<path d="M3677.43 1254.74L3779.85 982.919H3921.67L3735.53 1419.21C3696.14 1512.44 3661.01 1573.83 3630.15 1603.38C3599.29 1633.58 3555.96 1648.68 3500.15 1648.68C3484.39 1648.68 3461.74 1647.37 3432.2 1644.74L3402.65 1523.61C3429.57 1528.86 3450.58 1531.49 3465.68 1531.49C3516.89 1531.49 3551.69 1511.13 3570.08 1470.42L3590.76 1424.14L3428.26 982.919H3589.77L3677.43 1254.74ZM877.083 760.341C957.841 760.341 1017.26 775.114 1055.34 804.659C1084.23 826.983 1110.49 868.347 1134.13 928.752L995.266 990.798C987.387 954.686 975.24 929.08 958.826 913.979C935.846 892.968 904.987 882.463 866.249 882.463C812.41 882.463 772.031 901.832 745.111 940.569C716.222 982.59 701.777 1039.38 701.777 1110.95C701.777 1179.23 715.894 1232.42 744.127 1270.5C773.016 1307.92 813.067 1326.63 864.279 1326.63C903.674 1326.63 935.19 1314.16 958.826 1289.21C972.614 1274.11 984.761 1250.14 995.266 1217.32L1135.12 1281.33C1108.85 1339.11 1077.99 1380.15 1042.54 1404.44C999.205 1433.98 941.098 1448.76 868.219 1448.76C758.571 1448.76 674.858 1419.54 617.08 1361.1C559.958 1302.67 531.397 1216.99 531.396 1104.06C531.396 997.035 561.928 912.994 622.989 851.933C684.707 790.871 769.405 760.341 877.083 760.341ZM1660.65 971.101C1716.46 971.101 1759.8 992.767 1790.66 1036.1V982.919H1937.4V1433H1790.66V1384.74C1772.27 1405.09 1753.89 1419.21 1735.5 1427.09C1708.58 1438.91 1680.02 1444.82 1649.82 1444.82C1595.32 1444.82 1549.69 1426.76 1512.92 1390.65C1470.25 1349.29 1448.91 1289.21 1448.91 1210.42C1448.91 1130.98 1469.92 1070.57 1511.94 1029.21C1551.33 990.469 1600.91 971.101 1660.65 971.101ZM2844.24 971.101C2990 971.101 3062.88 1048.58 3062.88 1203.53C3062.88 1216 3062.55 1226.51 3061.89 1235.04H2755.6C2757.57 1315.14 2786.79 1355.2 2843.25 1355.2C2878.05 1355.2 2903.98 1333.53 2921.06 1290.19L3050.07 1323.68C3033 1358.48 3015.27 1383.43 2996.89 1398.53C2960.12 1429.39 2907.27 1444.82 2838.33 1444.82C2763.48 1444.82 2706.03 1424.79 2665.98 1384.74C2625.93 1344.03 2605.9 1285.93 2605.9 1210.42C2605.9 1133.6 2626.58 1074.51 2667.95 1033.15C2709.31 991.782 2768.07 971.101 2844.24 971.101ZM1350.88 1433H1204.14V743.599H1350.88V1433ZM3350.38 743.599C3379.93 743.599 3413.09 748.523 3449.85 758.371L3424.25 866.706C3409.15 861.454 3397.33 858.827 3388.79 858.827C3346.11 858.827 3324.78 887.716 3324.78 945.494V982.919H3425.23V1099.13H3324.78V1433H3178.03V1099.13H3116.97V982.919H3178.03V946.479C3178.03 876.226 3191.82 825.014 3219.4 792.842C3246.97 760.013 3290.63 743.599 3350.38 743.599ZM2348.83 971.101C2409.89 971.101 2454.53 990.469 2482.77 1029.21C2501.15 1054.16 2510.34 1093.22 2510.34 1146.41V1433H2363.6V1196.63C2363.6 1158.55 2358.02 1131.96 2346.86 1116.86C2336.35 1101.1 2317.64 1093.22 2290.72 1093.22C2255.27 1093.22 2230.32 1104.71 2215.87 1127.69C2206.02 1142.79 2201.1 1168.73 2201.1 1205.5V1433H2054.35V982.919H2201.1V1041.03C2225.39 1014.76 2248.37 996.707 2270.04 986.858C2291.7 976.353 2317.97 971.101 2348.83 971.101ZM1699.06 1079.43C1670.83 1079.43 1648.18 1090.93 1631.11 1113.91C1614.04 1136.89 1605.5 1167.74 1605.5 1206.48C1605.5 1247.19 1613.71 1279.03 1630.12 1302.01C1646.54 1324.99 1669.19 1336.48 1698.08 1336.48C1761.11 1336.48 1792.62 1293.81 1792.62 1208.45C1792.62 1168.4 1784.09 1136.89 1767.02 1113.91C1750.6 1090.93 1727.95 1079.43 1699.06 1079.43ZM776.517 0.451172C801.757 -2.94652 825.517 13.1697 831.694 37.877L983.444 644.878C950.646 638.065 916.664 634.483 881.846 634.483C607.36 634.484 384.846 856.998 384.846 1131.48C384.846 1171.7 389.624 1210.79 398.639 1248.24L308.01 1265.5C281.659 1270.52 256.041 1253.85 249.957 1227.72L1.31836 160.04C-5.36952 131.321 14.1207 103.081 43.3447 99.1465L776.517 0.451172ZM2842.27 1058.75C2792.37 1058.75 2764.46 1090.92 2758.55 1155.27H2920.07C2918.1 1090.92 2892.17 1058.75 2842.27 1058.75Z" fill="#019FE8"/>
<path d="M2350.83 971.101C2411.89 971.101 2456.53 990.469 2484.77 1029.21C2503.15 1054.16 2512.34 1093.22 2512.34 1146.41V1230.49C2464.26 1232.16 2415.99 1233 2367.5 1233C2366.87 1233 2366.23 1233 2365.6 1233V1196.63C2365.6 1158.55 2360.02 1131.96 2348.86 1116.86C2338.35 1101.1 2319.64 1093.22 2292.72 1093.22C2257.26 1093.22 2232.31 1104.71 2217.87 1127.69C2208.02 1142.79 2203.1 1168.73 2203.1 1205.5V1229.76C2153.95 1227.83 2105.04 1225.03 2056.35 1221.38V982.919H2203.1V1041.03C2227.39 1014.76 2250.37 996.707 2272.04 986.858C2293.7 976.353 2319.97 971.101 2350.83 971.101ZM2846.24 971.101C2982.46 971.101 3055.03 1038.78 3063.94 1174.13C2914.62 1199.66 2762.55 1217.12 2608.19 1226.05C2608 1220.93 2607.9 1215.72 2607.9 1210.42C2607.9 1133.6 2628.58 1074.51 2669.95 1033.15C2711.31 991.783 2770.07 971.101 2846.24 971.101ZM1662.65 971.101C1718.46 971.101 1761.79 992.767 1792.65 1036.1V982.919H1939.4V1210.93C1890.74 1205.89 1842.33 1199.99 1794.19 1193.26C1792.26 1160.35 1783.87 1133.9 1769.02 1113.91C1752.6 1090.93 1729.95 1079.43 1701.06 1079.43C1672.83 1079.43 1650.18 1090.93 1633.11 1113.91C1622.91 1127.63 1615.76 1144.17 1611.65 1163.51C1560.45 1153.98 1509.58 1143.49 1459.06 1132.07C1468.74 1089.98 1487.03 1055.69 1513.94 1029.21C1553.33 990.469 1602.9 971.101 1662.65 971.101ZM2844.27 1058.75C2794.37 1058.75 2766.46 1090.93 2760.55 1155.27H2922.07C2920.1 1090.93 2894.17 1058.75 2844.27 1058.75ZM3352.38 743.599C3381.93 743.599 3415.08 748.523 3451.85 758.371L3426.25 866.706C3411.15 861.454 3399.33 858.827 3390.79 858.827C3348.11 858.827 3326.78 887.716 3326.78 945.494V982.919H3427.23V1094.82C3421.8 1096.27 3416.36 1097.71 3410.92 1099.13H3326.78V1120.24C3278.19 1131.88 3229.27 1142.65 3180.03 1152.54V1099.13H3118.97V982.919H3180.03V946.479C3180.03 876.226 3193.82 825.014 3221.4 792.842C3248.97 760.013 3292.63 743.599 3352.38 743.599ZM1352.88 1106.57C1303.61 1094.03 1254.68 1080.6 1206.14 1066.3V743.599H1352.88V1106.57ZM3610.59 1041.29C3563.23 1056.33 3515.53 1070.53 3467.44 1083.88L3430.26 982.919H3591.77L3610.59 1041.29ZM879.082 760.341C959.84 760.341 1019.26 775.114 1057.34 804.659C1086.23 826.983 1112.49 868.347 1136.13 928.752L997.265 990.798C989.386 954.686 977.239 929.08 960.825 913.979C937.845 892.968 906.986 882.463 868.248 882.463C829.919 882.463 798.411 892.28 773.726 911.914C725.124 891.405 677.001 869.986 629.377 847.679C690.699 789.453 773.934 760.341 879.082 760.341ZM778.516 0.451172C803.756 -2.94653 827.517 13.1697 833.693 37.877L985.443 644.879C952.645 638.066 918.663 634.483 883.845 634.483C739.662 634.484 609.82 695.882 519.035 793.958C371.709 719.475 229.492 636.371 93.0352 545.301L3.31738 160.04C-3.37048 131.321 16.1199 103.082 45.3438 99.1475L778.516 0.451172Z" fill="white" fill-opacity="0.3"/>
<path d="M2350.83 972.101C2411.89 972.101 2456.53 991.469 2484.77 1030.21C2485.26 1030.87 2485.74 1031.54 2486.21 1032.23C2446.78 1033.41 2407.22 1034 2367.5 1034C2315.99 1034 2264.71 1033 2213.68 1031.02C2234.09 1010.65 2253.54 996.266 2272.04 987.858C2293.7 977.353 2319.97 972.101 2350.83 972.101ZM2203.1 1030.6C2153.94 1028.56 2105.02 1025.62 2056.35 1021.78V983.919H2203.1V1030.6ZM2846.24 972.101C2887.27 972.101 2922.52 978.24 2952 990.519C2863.64 1003.79 2774.31 1014.1 2684.11 1021.34C2724.35 988.513 2778.39 972.101 2846.24 972.101ZM1939.4 1010.79C1890.2 1005.42 1841.28 999.136 1792.65 991.957V983.919H1939.4V1010.79ZM1672.78 972.346C1688.22 973.102 1702.64 975.609 1716.06 979.868C1701.61 977.44 1687.18 974.933 1672.78 972.346ZM3352.38 744.599C3381.93 744.599 3415.08 749.523 3451.85 759.371L3426.25 867.706C3411.15 862.454 3399.33 859.827 3390.79 859.827C3356.88 859.827 3336.45 878.064 3329.48 914.538C3280.03 927.074 3230.21 938.665 3180.03 949.292V947.479C3180.03 877.227 3193.82 826.014 3221.4 793.842C3248.97 761.013 3292.63 744.599 3352.38 744.599ZM1352.88 900.8C1303.58 887.561 1254.65 873.379 1206.14 858.277V744.599H1352.88V900.8ZM939.738 764.563C990.324 770.381 1029.52 784.078 1057.34 805.659C1059.46 807.293 1061.55 809.03 1063.64 810.868C1022.01 796.116 980.704 780.675 939.738 764.563ZM778.517 1.45117C803.756 -1.94614 827.518 14.1699 833.694 38.877L985.444 645.879C952.646 639.066 918.664 635.483 883.846 635.483C823.226 635.483 765.142 646.337 711.429 666.206C467.697 551.815 237.725 412.958 24.6846 252.797L3.31738 161.04C-3.37037 132.321 16.12 104.082 45.3438 100.147L778.517 1.45117Z" fill="white" fill-opacity="0.3"/>
</svg>
